<svg id="Layer_1" data-name="Layer 1" xmlns="http://www.w3.org/2000/svg" viewBox="0 0 61.09 61.6"><defs><style>.cls-1{fill:#cd1725;}.cls-2{fill:#021f4d;}.cls-3{fill:#fff;}</style></defs><title>chess</title><rect class="cls-1" width="61.09" height="61.6"/><rect class="cls-2" x="30.46" y="30.8" width="15.4" height="15.4"/><rect class="cls-2" x="15.23" y="46.2" width="15.4" height="15.4"/><rect class="cls-2" x="45.69" y="46.2" width="15.4" height="15.4"/><rect class="cls-2" y="30.8" width="15.4" height="15.4"/><rect class="cls-2" x="15.23" y="15.4" width="15.4" height="15.4"/><rect class="cls-2" x="45.69" y="15.4" width="15.4" height="15.4"/><rect class="cls-2" width="15.4" height="15.4"/><rect class="cls-2" x="30.46" width="15.4" height="15.4"/><path class="cls-3" d="M206.24,308.66a.31.31,0,0,1-.14-.5,1.73,1.73,0,0,0-.38-2.71.32.32,0,0,1-.11-.46,1.14,1.14,0,0,0,.23-.68,1.07,1.07,0,1,0-2.13,0,1.14,1.14,0,0,0,.23.68.31.31,0,0,1-.11.46A1.77,1.77,0,0,0,203,307a1.75,1.75,0,0,0,.48,1.2.31.31,0,0,1-.13.5,4.24,4.24,0,0,0-3,4.13h9A4.23,4.23,0,0,0,206.24,308.66Z" transform="translate(-197.08 -269.49)"/><path class="cls-3" d="M218.55,276.53a.31.31,0,0,1,.13.5,1.74,1.74,0,0,0,.39,2.71.31.31,0,0,1,.1.46,1.11,1.11,0,0,0-.23.68,1.07,1.07,0,1,0,2.13,0,1.05,1.05,0,0,0-.23-.68.32.32,0,0,1,.11-.46,1.73,1.73,0,0,0,.38-2.71.31.31,0,0,1,.14-.5,4.24,4.24,0,0,0,3-4.13h-9A4.24,4.24,0,0,0,218.55,276.53Z" transform="translate(-197.08 -269.49)"/><path class="cls-3" d="M233.78,307.33a.31.31,0,0,1,.13.5,1.74,1.74,0,0,0,.39,2.71.31.31,0,0,1,.1.46,1.13,1.13,0,0,0-.22.68,1.06,1.06,0,1,0,1.89-.68.32.32,0,0,1,.11-.46,1.76,1.76,0,0,0,.87-1.51,1.79,1.79,0,0,0-.48-1.2.31.31,0,0,1,.13-.5,4.24,4.24,0,0,0,3-4.13h-9A4.24,4.24,0,0,0,233.78,307.33Z" transform="translate(-197.08 -269.49)"/><path class="cls-3" d="M218.55,291.93a.31.31,0,0,1,.13.5,1.74,1.74,0,0,0,.39,2.71.31.31,0,0,1,.1.46,1.14,1.14,0,0,0-.23.68,1.07,1.07,0,1,0,2.13,0,1.07,1.07,0,0,0-.23-.68.32.32,0,0,1,.11-.46,1.73,1.73,0,0,0,.38-2.71.31.31,0,0,1,.14-.5,4.24,4.24,0,0,0,3-4.13h-9A4.24,4.24,0,0,0,218.55,291.93Z" transform="translate(-197.08 -269.49)"/><path class="cls-3" d="M249,322.73a.32.32,0,0,1,.13.5,1.74,1.74,0,0,0,.39,2.71.31.31,0,0,1,.1.46,1.13,1.13,0,0,0-.22.68,1.06,1.06,0,1,0,1.89-.68.32.32,0,0,1,.11-.46,1.76,1.76,0,0,0,.87-1.51,1.79,1.79,0,0,0-.48-1.2.31.31,0,0,1,.13-.5,4.23,4.23,0,0,0,3-4.13h-9A4.23,4.23,0,0,0,249,322.73Z" transform="translate(-197.08 -269.49)"/><path class="cls-3" d="M251.93,277.86a.31.31,0,0,1-.13-.5,1.79,1.79,0,0,0,.48-1.2,1.76,1.76,0,0,0-.87-1.51.32.32,0,0,1-.11-.46,1.08,1.08,0,1,0-1.89-.68,1.13,1.13,0,0,0,.22.68.31.31,0,0,1-.1.46,1.74,1.74,0,0,0-.39,2.71.32.32,0,0,1-.13.5,4.24,4.24,0,0,0-3,4.13h9A4.24,4.24,0,0,0,251.93,277.86Z" transform="translate(-197.08 -269.49)"/></svg>