<svg id="Layer_1" data-name="Layer 1" xmlns="http://www.w3.org/2000/svg" viewBox="0 0 484 393.72"><defs><style>.cls-1{fill:#cd1724;}.cls-2{fill:#fcd116;}</style></defs><title>com</title><path class="cls-1" d="M179.88,174c111.87-6.16,155.91,25.85,224.54-55.74,0,0,73.4,203.71,93.58,273.61-13.65,12.28-63.95,31.84-93.08,31.76-25.62-.07-56.05.68-90.36,3-66.87,4.49-119.72,50.49-150.64,85.35H114.44L14,303.81S68,180.19,179.88,174Z" transform="translate(-14 -118.28)"/><path class="cls-2" d="M87.93,234.56l45.76,31.38,1.74,1.19,1.71-1.24L178.5,236l-13.45,49-.57,2.06,1.76,1.21,45.26,31-58.44,2.51-2,.09-.7,1.85-20.69,54.71-15.29-52.7-.62-2.11-2.19-.05-52.42-1.31,43.1-31.17,1.71-1.24-.58-2L87.93,234.56m-5.22-7.22,17.8,61.34-50.3,36.37,61.31,1.54,17.8,61.33,23.87-63.12,67.42-2.89-52.67-36.12,15.71-57.23-48.26,34.9L82.71,227.34Z" transform="translate(-14 -118.28)"/><g id="g933"><path id="path830" class="cls-2" d="M120.14,282.13a29.36,29.36,0,0,1,17.1-3.61c11.92,1.19,17.16,14.79,10.4,24.6a19.87,19.87,0,0,1-9,7c-3.61,1.43-7.34,1.4-11.08,1.93-1.68.24-4.13,2.46-4.45,3.87l-2.7,11.74c-.85,3.17,5.8,3.87,6.49,1L129.5,318c0-.12,5.38-.72,5.87-.82,7.43-1.48,14.67-6,18.51-12.63,5.3-9.18,3.83-21.62-5.37-26.78a23,23,0,0,0-18-1.42A31.16,31.16,0,0,0,123,280C122,280.63,121.14,281.5,120.14,282.13Z" transform="translate(-14 -118.28)"/><path id="path836" class="cls-2" d="M117.25,289.27l-4,13.26,7.31,1.46,1.66-5.51L161.8,307c3.17.7,4.57-5.86,1.91-6.26L124,292.74l2-6.52Z" transform="translate(-14 -118.28)"/></g></svg>