<svg id="Layer_1" data-name="Layer 1" xmlns="http://www.w3.org/2000/svg" viewBox="0 0 96.5 90.22"><defs><style>.cls-1{fill:#021f4d;}.cls-2{fill:#cd1725;}.cls-3{fill:#fff;}</style></defs><title>faces</title><rect class="cls-1" x="72.16" width="24.35" height="90.22"/><path class="cls-2" d="M315,265.38c-2.61,1.2-5.41,1.46-5.31,2a4.65,4.65,0,0,0,1.49,1.86c.7.59,2.14,1.24,1.52,2.88s-6.18,1.81-6.63,1.81c.41,0,4.66.13,5.64,1.68s-.54,2.41-2.71,3.5-1.22,1.59-.63,2.58,4.55,6.66-.7,8.73c-5.74,2.26-8.95.74-9.76,2.44s.89,3.4.67,5-2.44,4.51-2.89,6H278.49V213.61h23.9a15.66,15.66,0,0,1,4.07,5.18c.91,2.43,4.07,11.22,5.12,16.76.33,1.74-3.1,10.25-3.35,10.82s-1.71,3,.27,4.9a51.5,51.5,0,0,1,6,7.74C315.8,260.78,317.85,264.07,315,265.38Z" transform="translate(-219.94 -213.61)"/><path class="cls-1" d="M300.38,265.38c-2.61,1.2-5.41,1.46-5.31,2a4.65,4.65,0,0,0,1.49,1.86c.71.59,2.14,1.24,1.52,2.88s-6.17,1.81-6.62,1.81c.4,0,4.65.13,5.63,1.68s-.54,2.41-2.71,3.5-1.22,1.59-.63,2.58,4.55,6.66-.7,8.73c-5.73,2.26-8.94.74-9.76,2.44s.89,3.4.67,5-2.44,4.51-2.88,6H263.85V213.61h23.91a15.75,15.75,0,0,1,4.06,5.18c.91,2.43,4.07,11.22,5.13,16.76.33,1.74-3.11,10.25-3.36,10.82s-1.71,3,.28,4.9a51.33,51.33,0,0,1,6,7.74C301.16,260.78,303.21,264.07,300.38,265.38Z" transform="translate(-219.94 -213.61)"/><path class="cls-3" d="M285.74,265.38c-2.61,1.2-5.4,1.46-5.3,2a4.48,4.48,0,0,0,1.49,1.86c.7.59,2.14,1.24,1.51,2.88-.45,1.2-3.13,1.61-4.95,1.74-.86.07-1.53.07-1.67.07.15,0,.83,0,1.67.12,1.43.17,3.35.58,4,1.56,1,1.62-.55,2.41-2.71,3.5a2.75,2.75,0,0,0-1.26.95.65.65,0,0,0,0,.66c.13.29.41.6.63,1,.59,1,4.5,6.6-.63,8.7l-.08,0c-5.73,2.26-8.94.74-9.75,2.44s.88,3.4.66,5-2.44,4.51-2.88,6H249.21V213.61h23.91a15.75,15.75,0,0,1,4.06,5.18c.28.73.75,2,1.31,3.64a107.79,107.79,0,0,1,3.82,13.12c.33,1.74-3.11,10.25-3.35,10.82a11.45,11.45,0,0,0-.47,1,3.56,3.56,0,0,0,0,2.85,3.31,3.31,0,0,0,.74,1,52.17,52.17,0,0,1,6,7.74C286.52,260.78,288.57,264.07,285.74,265.38Z" transform="translate(-219.94 -213.61)"/><path class="cls-2" d="M271.1,265.38c-2.6,1.2-5.4,1.46-5.3,2a4.65,4.65,0,0,0,1.49,1.86c.7.59,2.14,1.24,1.51,2.88-.45,1.2-3.13,1.61-4.95,1.74-.86.07-1.53.07-1.67.07.15,0,.83,0,1.67.12,1.43.17,3.35.58,4,1.56,1,1.62-.54,2.41-2.71,3.5a2.75,2.75,0,0,0-1.26.95.65.65,0,0,0,0,.66c.13.29.41.6.63,1,.59,1,4.51,6.61-.63,8.7l-.07,0c-5.74,2.26-8.95.74-9.76,2.44s.89,3.4.66,5-2.44,4.51-2.88,6H234.58V213.61h23.9a15.75,15.75,0,0,1,4.06,5.18c.27.72.75,2,1.31,3.62a107.57,107.57,0,0,1,3.82,13.14c.33,1.74-3.1,10.25-3.35,10.82a11.45,11.45,0,0,0-.47,1,3.6,3.6,0,0,0,0,2.83,3.38,3.38,0,0,0,.74,1,51.5,51.5,0,0,1,6,7.74C271.88,260.78,273.94,264.07,271.1,265.38Z" transform="translate(-219.94 -213.61)"/><path class="cls-1" d="M256.47,265.38c-2.61,1.2-5.41,1.46-5.31,2a4.65,4.65,0,0,0,1.49,1.86c.7.59,2.14,1.24,1.52,2.88-.46,1.2-3.14,1.61-5,1.74-.86.07-1.53.07-1.67.07.15,0,.83,0,1.67.12,1.44.17,3.35.58,4,1.56,1,1.62-.54,2.41-2.71,3.5a2.75,2.75,0,0,0-1.26.95.65.65,0,0,0,0,.66c.13.29.41.6.63,1,.59,1,4.51,6.61-.63,8.7l-.07,0c-5.74,2.26-8.95.74-9.76,2.44s.89,3.4.67,5-2.44,4.51-2.89,6H219.94V213.61h23.9a15.66,15.66,0,0,1,4.07,5.18c.27.72.74,2,1.3,3.62A107.57,107.57,0,0,1,253,235.55c.33,1.74-3.1,10.25-3.35,10.82a11.65,11.65,0,0,0-.47,1.08,3.57,3.57,0,0,0,0,2.8,3.51,3.51,0,0,0,.74,1,51.5,51.5,0,0,1,6,7.74C257.25,260.78,259.3,264.07,256.47,265.38Z" transform="translate(-219.94 -213.61)"/></svg>