<svg id="Layer_1" data-name="Layer 1" xmlns="http://www.w3.org/2000/svg" viewBox="0 0 484.46 393.72"><defs><style>.cls-1{fill:#cd1724;}.cls-2{fill:#2042a1;}.cls-3{fill:#fff;}</style></defs><title>flag</title><path class="cls-1" d="M179.88,174c111.87-6.16,155.91,25.85,224.54-55.74,0,0,73.4,203.71,93.58,273.61-12.52,11.27-31.21,17.46-46.88,22.63-43.44,14.31-91.43,9.08-136.56,12.13-66.87,4.49-119.72,50.49-150.64,85.35H114.44L14,303.81S68,180.19,179.88,174Z" transform="translate(-13.54 -118.28)"/><path class="cls-2" d="M217.86,173.2c-11.9-.12-24.65.06-38.44.82C67.54,180.19,13.54,303.81,13.54,303.81L81.13,443c7.68-16.22,61.28-121.78,164.57-127.48,14.55-.8,27.95-1,40.41-.8Z" transform="translate(-13.54 -118.28)"/><polygon class="cls-3" points="147.17 116.64 115.89 137.5 91.19 121.4 96.55 150.39 65.27 171.25 99.87 168.31 105.23 197.3 121.25 166.49 155.85 163.55 131.15 147.45 147.17 116.64"/><polygon class="cls-3" points="136.17 180.04 125.77 173.26 128.03 185.47 114.85 194.25 129.42 193.01 131.68 205.22 138.43 192.25 153 191.01 142.59 184.23 149.34 171.26 136.17 180.04"/><polygon class="cls-3" points="86.02 189.04 92.76 176.07 79.59 184.85 69.19 178.07 71.45 190.28 58.28 199.06 72.84 197.82 75.1 210.03 81.85 197.06 96.42 195.82 86.02 189.04"/><polygon class="cls-3" points="64.07 150.42 66.33 162.63 73.08 149.65 87.65 148.41 77.25 141.63 83.99 128.66 70.82 137.44 60.42 130.66 62.68 142.87 49.5 151.66 64.07 150.42"/><polygon class="cls-3" points="115.23 116.31 117.49 128.52 124.23 115.55 138.8 114.31 128.4 107.53 135.15 94.56 121.97 103.34 111.57 96.56 113.83 108.77 100.66 117.55 115.23 116.31"/><polygon class="cls-3" points="168.79 133.85 175.53 120.88 162.36 129.66 151.96 122.89 154.22 135.09 141.05 143.88 155.62 142.64 157.88 154.84 164.62 141.87 179.19 140.63 168.79 133.85"/></svg>