<svg id="Layer_1" data-name="Layer 1" xmlns="http://www.w3.org/2000/svg" viewBox="0 0 49.98 42.84"><title>like</title><path d="M86.43,57.77a10.39,10.39,0,0,0-7.86-3.58h-8.3L71,49.94a6.32,6.32,0,0,0-11.91-3.83l-4,8.08H49.42A10.42,10.42,0,0,0,39,64.6V75A10.42,10.42,0,0,0,49.42,85.42H77.11a10.46,10.46,0,0,0,10.31-9l1.47-10.42A10.41,10.41,0,0,0,86.43,57.77ZM43.17,75V64.6a6.25,6.25,0,0,1,6.25-6.25h4.16V81.26H49.42A6.25,6.25,0,0,1,43.17,75Zm41.59-9.54L83.29,75.88a6.29,6.29,0,0,1-6.18,5.38H57.75V57.8a2,2,0,0,0,.48-.61L62.79,48a2.22,2.22,0,0,1,3-.86,2,2,0,0,1,1,2.18l-1.1,6.67a2.07,2.07,0,0,0,1.72,2.38,1.84,1.84,0,0,0,.33,0H78.57a6.25,6.25,0,0,1,6.25,6.25,6.36,6.36,0,0,1-.06.87Z" transform="translate(-39.01 -42.58)"/></svg>