<svg id="Layer_1" data-name="Layer 1" xmlns="http://www.w3.org/2000/svg" viewBox="0 0 319.86 177.45"><defs><style>.cls-1{fill:#6da544;}.cls-2{fill:#ffda44;}.cls-3{fill:#d80027;}.cls-4{fill:#fff;}</style></defs><title>myanmar</title><rect class="cls-1" y="28.65" width="319.86" height="120.14"/><path class="cls-2" d="M28.16,0H291.7a28.16,28.16,0,0,1,28.16,28.16V57.3a0,0,0,0,1,0,0H0a0,0,0,0,1,0,0V28.16A28.16,28.16,0,0,1,28.16,0Z"/><path class="cls-3" d="M0,120.14H319.86a0,0,0,0,1,0,0v29.14a28.16,28.16,0,0,1-28.16,28.16H28.16A28.16,28.16,0,0,1,0,149.28V120.14a0,0,0,0,1,0,0Z"/><path class="cls-4" d="M276.08,267.48,306,245.75a1,1,0,0,0-.6-1.88h-37L257,208.71a1,1,0,0,0-2,0l-11.42,35.16h-37a1,1,0,0,0-.6,1.88l29.91,21.73-11.43,35.17a1,1,0,0,0,1.6,1.15L256,282.07l29.91,21.73a1,1,0,0,0,1.6-1.15Z" transform="translate(-96.07 -167.28)"/></svg>