<svg id="Layer_1" data-name="Layer 1" xmlns="http://www.w3.org/2000/svg" viewBox="0 0 484.01 374.4"><defs><style>.cls-1{fill:#cd1724;}.cls-2{fill:#fff;}</style></defs><title>pdf</title><path class="cls-1" d="M498,391.89c-20.18-69.9-93.58-273.61-93.58-273.61C335.79,199.87,291.75,167.86,179.88,174S14,303.81,14,303.81l91.12,188.87h77.29a300.53,300.53,0,0,1,27.69-23.83c35.67-27,73.8-41,118.69-38.46,40.79,2.28,84.88,12.5,122.64-7.72a309.33,309.33,0,0,0,28.18-16.81C481.36,404.67,498.57,393.88,498,391.89Z" transform="translate(-14 -118.28)"/><polygon class="cls-2" points="96.56 153.7 103 123.05 79.98 145.48 53.15 132.19 65.76 159.35 42.74 181.79 73.55 176.14 86.15 203.3 92.59 172.64 123.39 166.99 96.56 153.7"/></svg>