<?xml version="1.0" encoding="utf-8"?>
<!-- Generator: Adobe Illustrator 24.0.2, SVG Export Plug-In . SVG Version: 6.00 Build 0)  -->
<svg version="1.1" id="Layer_1" xmlns="http://www.w3.org/2000/svg" xmlns:xlink="http://www.w3.org/1999/xlink" x="0px" y="0px"
	 viewBox="0 0 484 374.4" style="enable-background:new 0 0 484 374.4;" xml:space="preserve">
<style type="text/css">
	.st0{fill:#F10810;}
	.st1{fill:#FFFFFF;}
</style>
<title>pdf</title>
<path class="st0" d="M484,273.6C463.8,203.7,390.4,0,390.4,0c-68.6,81.6-112.7,49.6-224.5,55.7S0,185.5,0,185.5l91.1,188.9h77.3
	c8.7-8.5,18-16.5,27.7-23.8c35.7-27,73.8-41,118.7-38.5c40.8,2.3,84.9,12.5,122.6-7.7c9.7-5.1,19.1-10.7,28.2-16.8
	C467.4,286.4,484.6,275.6,484,273.6z"/>
<polygon class="st1" points="96.6,153.7 103,123.1 80,145.5 53.2,132.2 65.8,159.4 42.7,181.8 73.6,176.1 86.2,203.3 92.6,172.6 
	123.4,167 "/>
</svg>
