<svg id="Layer_1" data-name="Layer 1" xmlns="http://www.w3.org/2000/svg" viewBox="0 0 345.31 347.56"><defs><style>.cls-1{fill:#021f4d;}.cls-2{fill:#cd1724;}</style></defs><title>pieces</title><polygon class="cls-1" points="59.68 168.17 0 125.78 29.84 79.49 71.95 66.11 123.81 89.53 99.27 156.46 59.68 168.17"/><path class="cls-1" d="M475.54,496.57c2.87,9.69-18.74,24.64-48.27,33.4s-55.79,8-58.66-1.68,18.73-24.63,48.26-33.39S472.67,486.89,475.54,496.57Z" transform="translate(-339.34 -338.22)"/><path class="cls-1" d="M441.26,512.91a38.19,38.19,0,0,1-11.87,7.94c-5.58,2.39-10.42,2.32-16.36,3a24.43,24.43,0,0,0-4.75,1.16l8,112.43,89.76-31.67Z" transform="translate(-339.34 -338.22)"/><path class="cls-1" d="M555.56,630.8s-9.1-42.47-54.79-31.68a474.94,474.94,0,0,0-84.93,28.44c-43,18.8-24.8,58.22-24.8,58.22Z" transform="translate(-339.34 -338.22)"/><path class="cls-2" d="M607.57,420.24l3.75-50.81a33.66,33.66,0,0,1,46-28.8l6.1,2.43a33.66,33.66,0,0,1,14.11,52L645.9,435.58Z" transform="translate(-339.34 -338.22)"/><path class="cls-2" d="M673.71,459.94c-3.74,9.38-30,7.73-58.57-3.69s-48.76-28.28-45-37.66,30-7.73,58.58,3.69S677.46,450.56,673.71,459.94Z" transform="translate(-339.34 -338.22)"/><path class="cls-2" d="M636.68,451.53a38.48,38.48,0,0,1-14.23-1.12c-5.87-1.59-9.62-4.64-14.72-7.77a25,25,0,0,0-4.44-2l-63.35,93.23L630,564.59Z" transform="translate(-339.34 -338.22)"/><path class="cls-2" d="M653.37,614.87s19.17-39-23.38-58.8a475.87,475.87,0,0,0-84.29-30.3c-45.41-11.89-55.54,30.34-55.54,30.34Z" transform="translate(-339.34 -338.22)"/></svg>