<svg id="Layer_1" data-name="Layer 1" xmlns="http://www.w3.org/2000/svg" viewBox="0 0 341.59 82.21"><defs><style>.cls-1{fill:#1e293b;}.cls-2{fill:#2563eb;}</style></defs><title>tharzy-logo</title><path class="cls-1" d="M211.36,240.45a18.16,18.16,0,0,0-1.17-7,8.75,8.75,0,0,0-3.33-4.15,9,9,0,0,0-5.13-1.29H198v36.73c0,1.41,0,2.77-.08,4.08a29.31,29.31,0,0,1-.23,3c.88-.1,2-.16,3.4-.19s2.34,0,2.86,0v6H181.05v-5.17a11.6,11.6,0,0,0,3-.47,3.18,3.18,0,0,0,1.88-1.8,11.47,11.47,0,0,0,.66-4.54V228.08H183a9.07,9.07,0,0,0-7,3c-1.72,2-2.59,5.09-2.59,9.32h-5.16l.39-17.7h47.46l.47,17.7Z" transform="translate(-86.35 -216.6)"/><path class="cls-1" d="M244.42,272.49a4.77,4.77,0,0,0,3.17-.86,4.16,4.16,0,0,0,1.26-2.47,22.07,22.07,0,0,0,.27-3.64L249,254.39q0-5.08-1.53-7.55a5.23,5.23,0,0,0-4.81-2.47,9.45,9.45,0,0,0-3.88.86,12.52,12.52,0,0,0-3.25,2V265c0,.73,0,1.76-.08,3.09s-.13,2.6-.23,3.8c.88-.1,1.82-.17,2.81-.19s1.75,0,2.28,0v5.95H219.82v-5.09a4.8,4.8,0,0,0,3.18-.86,4,4,0,0,0,1.21-2.47,24.77,24.77,0,0,0,.24-3.64v-32.2c0-.94,0-2,.07-3.25s.13-2.41.24-3.56q-1.26.08-2.94.12c-1.12,0-2,.06-2.54.11v-6a40.27,40.27,0,0,0,6.14-.39,20.17,20.17,0,0,0,3.92-.94,7.44,7.44,0,0,0,2-1h4.23v23.11a18.16,18.16,0,0,1,3.6-2.23,24.33,24.33,0,0,1,4.15-1.57,14.14,14.14,0,0,1,3.68-.59q7.22,0,10.19,4.11t3.05,13.2V265c0,.73,0,1.76-.08,3.09s-.13,2.6-.23,3.8c.83-.1,1.75-.17,2.74-.19s1.78,0,2.35,0v5.95h-20.6Z" transform="translate(-86.35 -216.6)"/><path class="cls-1" d="M291.49,277.58c-.1-.73-.17-1.34-.19-1.84s-.07-1.08-.12-1.76a15.67,15.67,0,0,1-5.64,3.76,17.3,17.3,0,0,1-6,1.09,10.28,10.28,0,0,1-7.83-3,10.41,10.41,0,0,1-2.82-7.44,10.71,10.71,0,0,1,1.92-6.43,14.44,14.44,0,0,1,5.09-4.34,28.46,28.46,0,0,1,7.05-2.59,42.17,42.17,0,0,1,7.79-1.06v-4.07a12.35,12.35,0,0,0-.51-3.68,5.06,5.06,0,0,0-1.72-2.59,5.2,5.2,0,0,0-3.41-.86,9.14,9.14,0,0,0-2.9.63,6.88,6.88,0,0,0-2.43,1.57,3.15,3.15,0,0,1,.79,1.52,8.3,8.3,0,0,1,.16,1.45,5.45,5.45,0,0,1-1.26,3.25,4.46,4.46,0,0,1-4,1.61,4.55,4.55,0,0,1-3.61-1.65,5.73,5.73,0,0,1-1.25-3.68,7.56,7.56,0,0,1,2.23-5.44,15,15,0,0,1,6-3.61,25.5,25.5,0,0,1,8.31-1.29q6.88,0,10.69,3.57t3.8,11.39v4.55c0,1.25,0,2.5,0,3.76s0,2.76,0,4.54c0,.73,0,1.76-.08,3.09s-.13,2.6-.23,3.8c.89-.1,1.83-.17,2.82-.19s1.75,0,2.27,0v5.95Zm-.86-18a25.42,25.42,0,0,0-4.15.79,12.21,12.21,0,0,0-3.41,1.49,7.23,7.23,0,0,0-2.27,2.27,5.53,5.53,0,0,0-.82,3,3.74,3.74,0,0,0,1.41,3.14,5.21,5.21,0,0,0,3.06.94,7.29,7.29,0,0,0,3.36-.79,10.66,10.66,0,0,0,2.82-2v-8.78Z" transform="translate(-86.35 -216.6)"/><path class="cls-1" d="M310.76,272.49a4.64,4.64,0,0,0,3.14-.86,4.23,4.23,0,0,0,1.21-2.47,22.07,22.07,0,0,0,.27-3.64V252.36c0-.94,0-2,.08-3.17s.13-2.34.24-3.49q-1.26.08-2.94.12c-1.12,0-2,.06-2.55.11v-6h3.14a19.09,19.09,0,0,0,5.6-.78,8.82,8.82,0,0,0,3.33-1.57h3.84a22.58,22.58,0,0,1,.23,2.94c0,1.44.08,2.7.08,3.8a30.32,30.32,0,0,1,4-4.15,14.1,14.1,0,0,1,3.72-2.31,9.82,9.82,0,0,1,3.73-.75,7.71,7.71,0,0,1,4.77,1.53q2,1.53,2,5a6.22,6.22,0,0,1-.55,2.47,5.15,5.15,0,0,1-1.72,2.16,5.36,5.36,0,0,1-3.21.86,6.55,6.55,0,0,1-3.22-.94,4.25,4.25,0,0,1-1.87-3.61,4.92,4.92,0,0,0-3.14,1.3,15.05,15.05,0,0,0-2.78,3,12.48,12.48,0,0,0-1.68,3.25V265c0,.73,0,1.76-.08,3.09s-.13,2.6-.24,3.8c.84-.1,1.77-.17,2.78-.19s1.79,0,2.32,0v5.95H310.76Z" transform="translate(-86.35 -216.6)"/><path class="cls-1" d="M347.58,277.58v-5.64l18-23.73c.89-1.15,1.73-2.17,2.51-3.06s1.28-1.43,1.49-1.64l-10.58.15a3.63,3.63,0,0,0-2.93,1.37,10.89,10.89,0,0,0-1.85,3.57,31.11,31.11,0,0,0-1.09,4.93h-4.86l1.1-15.11H381.1v4.93l-17.47,23.73a29.84,29.84,0,0,1-2.19,2.67,26.76,26.76,0,0,1-2.19,2.11l11,.32a5.38,5.38,0,0,0,4-1.26,8.54,8.54,0,0,0,2.23-3.64,29,29,0,0,0,1.18-5h4.85l-1.17,15.35Z" transform="translate(-86.35 -216.6)"/><path class="cls-1" d="M396.69,298.81a7.5,7.5,0,0,1-5.05-1.77,5.78,5.78,0,0,1-2.08-4.66,5.57,5.57,0,0,1,1.37-3.72A4.7,4.7,0,0,1,394.5,287a3.75,3.75,0,0,1,2.93,1.14,4.46,4.46,0,0,1,1.22,3.32v.47a2.43,2.43,0,0,1-.08.55,1.12,1.12,0,0,0,.39-.08,3.53,3.53,0,0,0,1.53-1.29,13.63,13.63,0,0,0,1.6-2.78c.58-1.2,1.14-2.54,1.69-4s1-3,1.45-4.66l-12.38-24.83a47.19,47.19,0,0,1-2.86-6.62,27.7,27.7,0,0,1-.9-4l-3.6.16v-6H405v5c-1.93.21-3,.94-3.17,2.19a6.88,6.88,0,0,0,.67,3.92l7.67,17.54q.78-2,2-6.3t3-9.28c.2-.68.48-1.48.82-2.39s.71-1.83,1.13-2.74a10.42,10.42,0,0,1,1.33-2.24l-4.46.24v-6h13.94v5a6.49,6.49,0,0,0-4,3,27,27,0,0,0-2.86,6l-9.79,28a106.9,106.9,0,0,1-4.15,10.46,17.22,17.22,0,0,1-4.39,6.07A9.33,9.33,0,0,1,396.69,298.81Z" transform="translate(-86.35 -216.6)"/><circle class="cls-2" cx="35" cy="35" r="35"/></svg>