<svg id="Layer_1" data-name="Layer 1" xmlns="http://www.w3.org/2000/svg" viewBox="0 0 352.78 79.16"><defs><style>.cls-1{fill:#0069ff;}</style></defs><title>tharzy-logo</title><path d="M178.77,232.78V221.57h45v11.21Zm16,46V231.21h12.85v47.54Z" transform="translate(-86.35 -216.6)"/><path d="M231.17,278.75V221.57H243.7v33h-1.88a31.88,31.88,0,0,1,1.65-11,14,14,0,0,1,4.85-6.77,13.47,13.47,0,0,1,8.07-2.31h.55q7.13,0,10.89,5.05t3.76,14.77v24.43H259.05V253.53a7.86,7.86,0,0,0-2.07-5.68,7.25,7.25,0,0,0-5.45-2.15,7.46,7.46,0,0,0-5.67,2.27,8.41,8.41,0,0,0-2.16,6v24.75Z" transform="translate(-86.35 -216.6)"/><path d="M294.46,279.85a18.91,18.91,0,0,1-8.11-1.64,12.71,12.71,0,0,1-5.44-4.74,13.51,13.51,0,0,1-2-7.4,11.91,11.91,0,0,1,2.43-7.72,14.24,14.24,0,0,1,6.81-4.47,32.42,32.42,0,0,1,10.11-1.44h9.16v7h-9.24a7.24,7.24,0,0,0-5.05,1.6,5.58,5.58,0,0,0-1.77,4.35,5.4,5.4,0,0,0,1.77,4.19,7.24,7.24,0,0,0,5.05,1.61,9.27,9.27,0,0,0,3.8-.75,6.14,6.14,0,0,0,2.78-2.54,10.64,10.64,0,0,0,1.25-5l3,3.14a18,18,0,0,1-2.16,7.52,12.05,12.05,0,0,1-4.85,4.7A16,16,0,0,1,294.46,279.85Zm13.71-1.1V266.07h-2.12V252.28a6.91,6.91,0,0,0-1.57-4.94q-1.56-1.64-5-1.64c-1.15,0-2.66,0-4.54.08s-3.81.13-5.8.23-3.78.21-5.4.32V235.75c1.2-.1,2.61-.21,4.23-.31s3.29-.18,5-.24,3.34-.07,4.86-.07A28.89,28.89,0,0,1,308.91,237a14.26,14.26,0,0,1,6.85,5.68,18.3,18.3,0,0,1,2.35,9.76v26.31Z" transform="translate(-86.35 -216.6)"/><path d="M328.77,278.75V235.83h9.94v18.41h-.23q0-9.09,3.88-14t11.24-4.94h1.64v10.81h-3.13q-5.17,0-8,2.78c-1.88,1.86-2.82,4.53-2.82,8v21.85Z" transform="translate(-86.35 -216.6)"/><path d="M358.92,278.75V270l20.13-24.12v1.25l-1.88-2.35,1.41.7H359v-9.63h33.76v8.77l-20.13,24.13v-1.18l1.88,2.35-1.41-.78h20.29v9.63Z" transform="translate(-86.35 -216.6)"/><path d="M408.9,277.81l-13.16-42h12.61l12.45,42Zm-8.31,17.94V285.1h8.93a10.2,10.2,0,0,0,3.45-.51,4.74,4.74,0,0,0,2.27-1.68,9.61,9.61,0,0,0,1.41-3.21l10.58-43.87h11.9l-12,46.37a22.28,22.28,0,0,1-3.49,8,12.3,12.3,0,0,1-6,4.27,29.25,29.25,0,0,1-9.44,1.29Zm13.48-17.94V268h9.08v9.79Z" transform="translate(-86.35 -216.6)"/><circle class="cls-1" cx="35" cy="35" r="35"/></svg>