<svg id="Layer_1" data-name="Layer 1" xmlns="http://www.w3.org/2000/svg" viewBox="0 0 241.92 50"><defs><style>.cls-1{fill:#f10810;}.cls-2{fill:#021f4d;}</style></defs><title>tharzy-logo</title><circle class="cls-1" cx="25" cy="25" r="25"/><path class="cls-2" d="M138.31,249.73h-3.79v-6.32l2.08-.32c2.85-.44,3.74-2,4.43-4.56l.95-3.67h6.46v7.79h7.34v7.08h-7.34v10.32c0,2.41,1.14,3.35,3.23,3.35a11.44,11.44,0,0,0,4.36-.94v6.64a13.28,13.28,0,0,1-8.48,2.53c-4.74,0-9.24-2-9.24-8.6Z" transform="translate(-70.69 -231)"/><path class="cls-2" d="M170.21,270.87H160V231h10.25v15.89c1.52-3.11,4.87-5,9.11-5,7.72,0,10.19,5.38,10.19,11.26v17.72H179.26v-15c0-3.86-1.08-5.88-4.18-5.88-3.48,0-4.87,2.78-4.87,7Z" transform="translate(-70.69 -231)"/><path class="cls-2" d="M221.16,262.58c0,1.46.63,2.09,1.71,2.09a5.91,5.91,0,0,0,2.27-.44v5.44a10.82,10.82,0,0,1-6.39,1.84c-3.48,0-6.2-1.78-7.15-5-1.65,3.29-4.87,5-9.37,5-5.5,0-9.11-2.85-9.11-7.66,0-5.45,3.92-7.79,10.06-8.86l7.91-1.33v-.44c0-2.35-1.07-3.74-3.54-3.74-2.28,0-3.42,1.46-3.86,3.55l-9.49-.64c.88-6.2,5.5-10.5,14-10.5,7.47,0,13,3.22,13,11.07Zm-10.07-3.92-4.17.76c-2.47.5-3.93,1.26-3.93,3.1,0,1.45,1.14,2.4,2.85,2.4,2.91,0,5.25-2.15,5.25-5.82Z" transform="translate(-70.69 -231)"/><path class="cls-2" d="M249.38,252.65a9.05,9.05,0,0,0-4.87-1.21c-3.8,0-6.14,1.78-6.14,6.52v12.91H228.12V242.65h10.25v5a8.2,8.2,0,0,1,7.72-5.76A6.79,6.79,0,0,1,250,243Z" transform="translate(-70.69 -231)"/><path class="cls-2" d="M252.29,250.05v-7.4H277v7l-12.72,13.86h13v7.4H252v-7l12.53-13.8Z" transform="translate(-70.69 -231)"/><path class="cls-2" d="M286.34,281l4.05-9.75-11.52-28.6h10.76l6.27,16.51h.25l6.39-16.51h10.07L296.41,281Z" transform="translate(-70.69 -231)"/></svg>