<svg id="Layer_1" data-name="Layer 1" xmlns="http://www.w3.org/2000/svg" viewBox="0 0 390.25 80"><defs><style>.cls-1{fill:#f10810;}.cls-2{fill:#021f4d;}</style></defs><title>tharzy-logo</title><circle class="cls-1" cx="40" cy="40" r="40"/><path class="cls-2" d="M176.9,230.7V296H159.2V230.7H145V216h46.08v14.7Z" transform="translate(-60.88 -216)"/><path class="cls-2" d="M224.7,296V259.13H214.18V296h-17.7V216h17.7v29.7H224.7V216h17.7v80Z" transform="translate(-60.88 -216)"/><path class="cls-2" d="M279,296l-2.29-13.83h-11.8L262.8,296h-15l15.31-80h17.75l16.94,80Zm-9-50.2L266.46,271h8.34Z" transform="translate(-60.88 -216)"/><path class="cls-2" d="M349.15,240.72a34.76,34.76,0,0,1-.84,8.29,16.31,16.31,0,0,1-2.41,5.57,11.23,11.23,0,0,1-3.76,3.4,17.41,17.41,0,0,1-4.94,1.76,14.18,14.18,0,0,1,4.48,1.93,10.43,10.43,0,0,1,3.15,3.48,18.28,18.28,0,0,1,1.93,5.52,57.67,57.67,0,0,1,.92,8c.07,1.56.13,3.09.18,4.6s.07,2.76.07,3.74c0,.81.1,1.7.21,2.67s.21,1.88.33,2.75.23,1.62.33,2.26a9.42,9.42,0,0,0,.25,1.27H331a24.64,24.64,0,0,1-1.15-4.14,26.65,26.65,0,0,1-.43-5v-6.16c0-1.32,0-2.63,0-3.94s0-2.45-.07-3.43c0-1.26-.11-2.42-.23-3.49a8.77,8.77,0,0,0-.74-2.77,4.4,4.4,0,0,0-1.57-1.83,5,5,0,0,0-2.75-.66h-2.65V296H303.64V216h26.14a22.51,22.51,0,0,1,8.87,1.58,14.52,14.52,0,0,1,6,4.7,20.61,20.61,0,0,1,3.41,7.76A47.88,47.88,0,0,1,349.15,240.72Zm-17.69.1a32.65,32.65,0,0,0-.41-5.65,10.07,10.07,0,0,0-1.22-3.53,4.55,4.55,0,0,0-2-1.81,6.4,6.4,0,0,0-2.57-.51h-4v22.94h4.17a5.81,5.81,0,0,0,2.9-.66,4.47,4.47,0,0,0,1.83-2.06,12.11,12.11,0,0,0,.95-3.56A42.14,42.14,0,0,0,331.46,240.82Z" transform="translate(-60.88 -216)"/><path class="cls-2" d="M354.85,296V277.44l25-46.44H358.21V216H396.5v18.56L372,280.69H396.5V296Z" transform="translate(-60.88 -216)"/><path class="cls-2" d="M434.24,264.77V296h-17.7V264.77L399.15,216h17.7l9.61,29.7,9.46-29.7h15.2Z" transform="translate(-60.88 -216)"/></svg>