<svg id="Layer_1" data-name="Layer 1" xmlns="http://www.w3.org/2000/svg" viewBox="0 0 286.57 63.2"><defs><style>.cls-1{fill:#2563eb;}</style></defs><title>tharzy-logo</title><circle class="cls-1" cx="24.43" cy="28.12" r="24.43"/><path d="M179,248.08h-4.8v-8l2.64-.4c3.6-.56,4.72-2.48,5.6-5.76l1.2-4.64h8.16v9.84h9.28v9h-9.28v13c0,3,1.44,4.24,4.08,4.24a14.36,14.36,0,0,0,5.52-1.2v8.4c-2.72,2-5.84,3.2-10.72,3.2-6,0-11.68-2.48-11.68-10.88Z" transform="translate(-112.71 -224.4)"/><path d="M219.29,274.8h-13V224.4h13v20.08c1.92-3.92,6.16-6.32,11.52-6.32,9.76,0,12.88,6.8,12.88,14.24v22.4h-13v-19c0-4.88-1.36-7.44-5.28-7.44-4.4,0-6.16,3.52-6.16,8.88Z" transform="translate(-112.71 -224.4)"/><path d="M283.69,264.32c0,1.84.8,2.64,2.16,2.64a7.38,7.38,0,0,0,2.88-.56v6.88a13.67,13.67,0,0,1-8.08,2.32c-4.4,0-7.84-2.24-9-6.32-2.08,4.16-6.16,6.32-11.84,6.32-7,0-11.52-3.6-11.52-9.68,0-6.88,5-9.84,12.72-11.2L271,253v-.56c0-3-1.36-4.72-4.48-4.72-2.88,0-4.32,1.84-4.88,4.48l-12-.8c1.12-7.84,7-13.28,17.68-13.28,9.44,0,16.4,4.08,16.4,14Zm-12.72-5-5.28,1c-3.12.64-5,1.6-5,3.92,0,1.84,1.44,3,3.6,3,3.68,0,6.64-2.72,6.64-7.36Z" transform="translate(-112.71 -224.4)"/><path d="M319.37,251.76a11.54,11.54,0,0,0-6.16-1.52c-4.8,0-7.76,2.24-7.76,8.24V274.8h-13V239.12h13v6.32a10.37,10.37,0,0,1,9.76-7.28,8.54,8.54,0,0,1,5,1.36Z" transform="translate(-112.71 -224.4)"/><path d="M323.05,248.48v-9.36h31.28v8.8l-16.08,17.52h16.48v9.36h-32v-8.88l15.84-17.44Z" transform="translate(-112.71 -224.4)"/><path d="M366.08,287.6l5.12-12.32-14.56-36.16h13.6L378.16,260h.33l8.08-20.88h12.72L378.81,287.6Z" transform="translate(-112.71 -224.4)"/></svg>