<svg id="Layer_1" data-name="Layer 1" xmlns="http://www.w3.org/2000/svg" viewBox="0 0 103.66 30.08"><defs><style>.cls-1{fill:#2563eb;}</style></defs><title>tharzy-logo</title><path class="cls-1" d="M46.77,68.23c.46.28.7.55.7.83,0,.47-.37.71-1.09.71H40.3c-.7,0-1-.24-1-.71,0-.27.22-.54.67-.83A2.77,2.77,0,0,0,41,67.11a9.56,9.56,0,0,0,.39-3.39V59.2a3.76,3.76,0,0,0-.78-2.54,2.68,2.68,0,0,0-2.16-.91,3.26,3.26,0,0,0-2.4,1,4.6,4.6,0,0,0-1.17,2.4,24,24,0,0,0-.33,4.62,9.72,9.72,0,0,0,.37,3.39A2.42,2.42,0,0,0,36,68.23c.44.29.67.56.67.83,0,.47-.36.71-1.06.71H29.58c-.7,0-1-.24-1-.71,0-.27.22-.54.67-.83a2.38,2.38,0,0,0,1.08-1.12,9.56,9.56,0,0,0,.39-3.39V51.5q0-1.55-.51-2a3.67,3.67,0,0,0-2.24-.46H24.84a.6.6,0,0,0-.67.68V63.72a9.33,9.33,0,0,0,.39,3.39,2.49,2.49,0,0,0,1.08,1.12c.45.29.67.56.67.83,0,.47-.35.71-1,.71H18.83c-.71,0-1.06-.24-1.06-.71,0-.27.22-.54.68-.83a2.38,2.38,0,0,0,1.08-1.12,9.56,9.56,0,0,0,.39-3.39V49.77a.6.6,0,0,0-.67-.68,5.5,5.5,0,0,0-2.86.61,5.06,5.06,0,0,0-1.84,2.53,2.68,2.68,0,0,1-.52.9.9.9,0,0,1-.64.25,1.25,1.25,0,0,1-.88-.26,1.2,1.2,0,0,1-.28-.89c0-.38,0-.75,0-1.09,0-.14,0-.3,0-.47s0-.29,0-.39a1.72,1.72,0,0,0,0-.2v-1.2l.06-1.16a.89.89,0,0,1,.37-.82,2.14,2.14,0,0,1,1.08-.21c.29,0,1.08,0,2.39.14s2.52.09,3.52.09h4.58a59.75,59.75,0,0,0,6.44-.26A13.18,13.18,0,0,0,33.06,46a2.07,2.07,0,0,1,.75-.16c.49,0,.74.32.74,1V55.5c0,.08,0,.13.09.13s.06,0,.13-.1A6.08,6.08,0,0,1,40,52.7a4.89,4.89,0,0,1,4.32,2.16,7.38,7.38,0,0,1,1,4.28v4.58a9.72,9.72,0,0,0,.37,3.39A2.42,2.42,0,0,0,46.77,68.23Z" transform="translate(-12.23 -45.86)"/><path class="cls-1" d="M64.48,67.5a.57.57,0,0,1,.65.64,1.19,1.19,0,0,1-.22.67,2.85,2.85,0,0,1-1.14,1,3.69,3.69,0,0,1-1.61.37,2.74,2.74,0,0,1-1.85-.66,3.11,3.11,0,0,1-1-1.94l-.14,0A5.67,5.67,0,0,1,57,69.44a6.65,6.65,0,0,1-3,.69A5.8,5.8,0,0,1,50.41,69a3.7,3.7,0,0,1-1.47-3.08,4.13,4.13,0,0,1,2.14-3.7A17.08,17.08,0,0,1,54,60.94c1.47-.54,2.28-.86,2.45-.94,1.71-.8,2.56-1.79,2.56-3a2.26,2.26,0,0,0-.42-1.36,2.13,2.13,0,0,0-1.23-.78,3.47,3.47,0,0,0-.81-.09,3.54,3.54,0,0,0-2.33.86,7,7,0,0,0-1.25,1.43l-.67,1a1.2,1.2,0,0,1-1,.45c-.71,0-1.06-.6-1.06-1.8a3.83,3.83,0,0,1,.58-2.39,4.32,4.32,0,0,1,2.53-1.25,14.65,14.65,0,0,1,3.19-.36,7.54,7.54,0,0,1,4.81,1.52,4.78,4.78,0,0,1,1.84,4q0,.39-.06,3.51c0,2-.06,3.13-.06,3.27,0,1.71.3,2.56.9,2.56h.26ZM59,61.7v-.64a.08.08,0,0,0-.09-.09l-.09,0a12.09,12.09,0,0,1-2,1,14.47,14.47,0,0,0-2.17,1.12,2.87,2.87,0,0,0-1.42,2.41,2,2,0,0,0,.63,1.55,2.29,2.29,0,0,0,1.62.59,3.22,3.22,0,0,0,1.72-.5,3.46,3.46,0,0,0,1.25-1.42A10.76,10.76,0,0,0,59,61.7Z" transform="translate(-12.23 -45.86)"/><path class="cls-1" d="M79.52,53.38a2.76,2.76,0,0,1,.64,1.95,2,2,0,0,1-.35,1.24,1.09,1.09,0,0,1-.93.46,2.6,2.6,0,0,1-1.22-.42,2.52,2.52,0,0,0-1.18-.38,2,2,0,0,0-1.4.68C74,58,73.44,60.27,73.44,63.72a9.56,9.56,0,0,0,.39,3.39,2.38,2.38,0,0,0,1.08,1.12c.44.29.67.56.67.83,0,.47-.35.71-1,.71H68.42c-.71,0-1.06-.24-1.06-.71,0-.3.22-.58.67-.83a2.47,2.47,0,0,0,1.1-1.12,9.72,9.72,0,0,0,.37-3.39v-5a5.78,5.78,0,0,0-.31-2.33,2,2,0,0,0-1.1-.86c-.59-.21-.89-.46-.89-.76s.32-.69,1-.85a18,18,0,0,0,3.39-1,1.86,1.86,0,0,1,.76-.21c.57,0,.85.33.85,1v2.5c0,.09,0,.13.06.13s0,0,.06-.1a7.86,7.86,0,0,1,1.86-2.4,4.06,4.06,0,0,1,2.66-1.1A2.24,2.24,0,0,1,79.52,53.38Z" transform="translate(-12.23 -45.86)"/><path class="cls-1" d="M94.91,63.47c.69,0,1,.31,1,.92a4.93,4.93,0,0,1-.15,1,15.55,15.55,0,0,0-.32,1.67,9.11,9.11,0,0,1-.4,1.81,1.86,1.86,0,0,1-.69.91,2.05,2.05,0,0,1-1.06.25c-.21,0-.86,0-1.94-.13s-2.34-.12-3.78-.12H81.88a.79.79,0,0,1-.62-.18,1.27,1.27,0,0,1-.15-.75,3,3,0,0,1,.45-1.79l8.8-11.46a.37.37,0,0,0,.12-.26c0-.13-.07-.19-.21-.19H88.06a6.25,6.25,0,0,0-2.28.33,4.18,4.18,0,0,0-2,2.33c-.33.68-.73,1-1.22,1-.76,0-1.14-.41-1.14-1.22,0-.11,0-.68.06-1.7,0-.64,0-1.32.06-2s.5-1,1.41-1c.35,0,1.16,0,2.41.13,1.43.06,2.78.09,4,.09h5.34a1.07,1.07,0,0,1,.66.15.75.75,0,0,1,.17.56,3.16,3.16,0,0,1-.58,2l-8.7,11.36a1.46,1.46,0,0,0-.16.3c0,.08,0,.12.16.12a25.55,25.55,0,0,0,3.2-.17,5,5,0,0,0,2.31-.79,6.33,6.33,0,0,0,1.69-2Q94.17,63.47,94.91,63.47Z" transform="translate(-12.23 -45.86)"/><path class="cls-1" d="M110,53.06h4.8c.75,0,1.12.24,1.12.71,0,.23-.19.48-.58.76l-.28.19a2.43,2.43,0,0,0-.36.26,3.9,3.9,0,0,0-1.09,1.19,19.12,19.12,0,0,0-1.5,3L108,69a20,20,0,0,1-2.13,4,7.59,7.59,0,0,1-2.61,2.27,5.37,5.37,0,0,1-2.53.64,3,3,0,0,1-2.31-.89,2.77,2.77,0,0,1-.63-1.89,2.54,2.54,0,0,1,.34-1.38,1.09,1.09,0,0,1,1-.55,1.79,1.79,0,0,1,.92.46l.89.76a2.5,2.5,0,0,0,1.19.39,2.44,2.44,0,0,0,1.43-.54,4.84,4.84,0,0,0,1.22-1.58,2.91,2.91,0,0,0,.13-.36.51.51,0,0,0-.07-.28l-5-12.38a8.33,8.33,0,0,0-1.42-2.62,4.88,4.88,0,0,0-1-.61c-.36-.16-.54-.38-.54-.67,0-.49.37-.74,1.12-.74h6c.65,0,1,.24,1,.71a.81.81,0,0,1-.47.67,2.83,2.83,0,0,0-.39.22l-.33.24a1,1,0,0,0-.29.37,1.42,1.42,0,0,0-.08.48,5,5,0,0,0,.36,1.41L107.13,65q.06.23.21,0l2.18-5.31a10.17,10.17,0,0,0,1-3.49,2,2,0,0,0-1.18-1.79.82.82,0,0,1-.46-.67C108.84,53.3,109.22,53.06,110,53.06Z" transform="translate(-12.23 -45.86)"/></svg>