<svg id="Layer_1" data-name="Layer 1" xmlns="http://www.w3.org/2000/svg" viewBox="0 0 370.63 50"><defs><style>.cls-1{fill:#cd1724;}.cls-2{fill:#061f4d;}</style></defs><title>tharzy-logo</title><circle class="cls-1" cx="25" cy="25" r="25"/><path class="cls-2" d="M149.87,281V242.11H132.73V231h47.93v11.11H163.28V281Z" transform="translate(-70.69 -231)"/><path class="cls-2" d="M186.46,281V231H200v19.29h19.92V231h13.49v50H219.87V261.24H200V281Z" transform="translate(-70.69 -231)"/><path class="cls-2" d="M272.18,231l19.92,50H277.73L274,271.32H254.48L250.75,281H237.18l19.92-50Zm-13.81,30.24h11.74l-5.71-14.76h-.32Z" transform="translate(-70.69 -231)"/><path class="cls-2" d="M327.58,281c-1-1.35-1.67-4.44-2.07-9.6-.39-5.72-2.85-7-7.38-7h-9V281H295.91V231h25.24c12.93,0,19.36,6.11,19.36,15.87,0,7.3-4.52,12.07-10.63,12.86,5.16,1,8.17,4,8.73,9.76.71,7.46.95,9.69,2.62,11.51Zm-8.81-27c5.71,0,8.57-1.43,8.57-6,0-4-2.86-6.19-8.57-6.19h-9.61V254Z" transform="translate(-70.69 -231)"/><path class="cls-2" d="M387.42,269.89V281H345V270.76l24.6-28.65H345.28V231h41.51v10.48L362,269.89Z" transform="translate(-70.69 -231)"/><path class="cls-2" d="M426.79,231h14.52l-19.2,31v19H409V262l-19.2-31h15l11.28,18Z" transform="translate(-70.69 -231)"/></svg>