<svg id="Layer_1" data-name="Layer 1" xmlns="http://www.w3.org/2000/svg" viewBox="0 0 248.16 75.2"><defs><style>.cls-1{fill:#0069ff;}</style></defs><title>tharzy-logo</title><path class="cls-1" d="M161.8,233.36,152.68,279h-11.6l9.12-45.6H135.48l2.08-10.24h41l-2.08,10.24Z" transform="translate(-135.48 -219.76)"/><path class="cls-1" d="M186.84,219.76H198l-5.36,27h.48a23.66,23.66,0,0,1,5.68-7.88,12.15,12.15,0,0,1,8.24-2.84c3.25,0,5.75.95,7.48,2.83s2.6,4.57,2.6,8a21,21,0,0,1-.2,2.91c-.13.93-.31,1.93-.52,3L213,269.92h4.24l-1.76,9H208.2a7,7,0,0,1-5-1.64,5.78,5.78,0,0,1-1.76-4.44,10.64,10.64,0,0,1,.08-1.32,8.73,8.73,0,0,1,.16-.92L205,254c.16-.75.29-1.48.4-2.2a15.11,15.11,0,0,0,.16-2.28,4.54,4.54,0,0,0-1-3,4.05,4.05,0,0,0-3.28-1.16,6.6,6.6,0,0,0-3.76,1.12,14.72,14.72,0,0,0-3,2.72,18.69,18.69,0,0,0-2.48,3.72,17.24,17.24,0,0,0-1.52,4.44L186.2,279H175Z" transform="translate(-135.48 -219.76)"/><path class="cls-1" d="M255.32,279a7.78,7.78,0,0,1-5-1.6,5.52,5.52,0,0,1-2-4.56,13.17,13.17,0,0,1,.08-1.36,8.67,8.67,0,0,1,.16-1l.24-1.2h-.48a25.37,25.37,0,0,1-5.6,7.92,11.62,11.62,0,0,1-8.08,2.8,11.07,11.07,0,0,1-5.08-1.08,9.35,9.35,0,0,1-3.48-3,13.59,13.59,0,0,1-2-4.64,24.78,24.78,0,0,1-.64-5.8A43.64,43.64,0,0,1,225,253.24a31.76,31.76,0,0,1,4.2-9.24,19.54,19.54,0,0,1,6.2-5.92,14.7,14.7,0,0,1,7.56-2.08,10.83,10.83,0,0,1,7.24,2.4,8.81,8.81,0,0,1,3.24,5.84h.4l1.44-7.28h11.2l-6.64,33h4.72l-1.76,9Zm-15.2-8.24A7.11,7.11,0,0,0,244,269.6a12.36,12.36,0,0,0,3-2.72,16.13,16.13,0,0,0,2.36-3.8,21.16,21.16,0,0,0,1.48-4.52l1.28-6.4a5.25,5.25,0,0,0-1.2-5,6.93,6.93,0,0,0-5.36-2q-7.27,0-9.2,9.36l-1.12,5.6c-.11.59-.21,1.33-.32,2.24a19.63,19.63,0,0,0-.16,2.32,6.47,6.47,0,0,0,1.4,4.4A4.87,4.87,0,0,0,240.12,270.72Z" transform="translate(-135.48 -219.76)"/><path class="cls-1" d="M269.32,279l8.4-42h11.2l-2.08,10.48h.56a21.66,21.66,0,0,1,1.8-3.56,17.58,17.58,0,0,1,2.72-3.4,14,14,0,0,1,3.6-2.52,9.91,9.91,0,0,1,4.44-1h2l-2.24,10.88h-2.8q-5.35,0-8.16,2t-3.84,7.08L280.52,279Z" transform="translate(-135.48 -219.76)"/><path class="cls-1" d="M298.84,279l1.76-9L325.08,246H305.8l1.76-9h32.72l-1.76,9L314,269.92H334.6l-1.76,9Z" transform="translate(-135.48 -219.76)"/><path class="cls-1" d="M371.72,237h11.92l-25.76,48.8a25.54,25.54,0,0,1-2.56,4,13.27,13.27,0,0,1-3.12,2.88,12.88,12.88,0,0,1-4,1.72,21.74,21.74,0,0,1-5.2.56h-6.24l1.84-9h7.76l2.24-4.63L342.68,237H353.8l1.6,15.8,1.28,15.65h.48l7-15.65Z" transform="translate(-135.48 -219.76)"/></svg>