<svg id="Layer_1" data-name="Layer 1" xmlns="http://www.w3.org/2000/svg" viewBox="0 0 122.47 221.64"><defs><style>.cls-1{fill:#021f4d;}</style></defs><title>three-finger-salute</title><polygon class="cls-1" points="105.72 96.07 81.58 115.78 78.39 122.24 80.74 126.96 90.16 131.83 120.67 110.7 122.47 103.92 113.89 95.02 105.72 96.07"/><polygon class="cls-1" points="29.54 74.72 29.54 21.63 33.01 11.08 44.05 9.83 49.16 16.27 49.16 80.61 29.54 74.72"/><polygon class="cls-1" points="67.76 99.74 58.36 104.21 67.14 108.32 70.82 114.75 76.54 104.74 76.54 9.83 71.64 1.07 58.36 0 52.84 10.5 52.84 81.69 71.97 87.97 67.76 99.74"/><polygon class="cls-1" points="79.58 110.7 79.58 17.84 84.48 9.83 94.29 8.79 100.43 19.71 100.43 96.97 79.58 110.7"/><path class="cls-1" d="M294.19,282.2l-11.34-4.89-6.69,20.79-12.53-28-13.31-10.09-15.5-2.73,5.6-10.6,16,1.35,11-6.25,2.57-6.91L223,220.76,202.8,256l35,47.83-13,63.1h76.67V310.48l20.1-34.88V259.77Zm-15.42,42.25L273,351.07l-1.7-28.23-8.35-8,10.19,2.48h7.22L291.09,316Z" transform="translate(-202.8 -145.29)"/></svg>