<svg id="Layer_1" data-name="Layer 1" xmlns="http://www.w3.org/2000/svg" viewBox="0 0 483.99 393.71"><defs><style>.cls-1{fill:#cd1724;}.cls-2{fill:#021f4d;}.cls-3{fill:#fcddb0;}.cls-4{fill:#fff;}.cls-5{fill:#5f9ba5;}.cls-6{fill:#1b2e50;}</style></defs><title>workers</title><path class="cls-1" d="M179.88,114.88c111.87-6.16,155.91,25.85,224.54-55.74,0,0,73.4,203.71,93.58,273.61-13.65,12.28-63.95,31.84-93.08,31.76-25.62-.07-56.05.68-90.36,3C247.69,372,194.84,418,163.92,452.86H114.44L14,244.67S68,121.05,179.88,114.88Z" transform="translate(-14 -59.14)"/><path class="cls-2" d="M234.64,387.85c17.92-35.5,42.71-66.37,65.92-98.44,7.37,3.42,15.69,6,23.73,8.62,23.41,7.54,51.81,13.75,65.15,36.67,6,10.3,7.91,19.46,9.1,29.82-24.25.06-52.48.86-84,3-31.28,2.12-59.49,13.29-83.82,28.16,1.32-2.68,2.64-5.31,3.9-7.82Z" transform="translate(-14 -59.14)"/><path class="cls-3" d="M369,311.25c-16-65.66-25.35-90.54-40.42-130.41-7.05.89-10.58,1.19-17.63,1.61,15.18,40.16,24.94,65.66,40.79,130,6.88-.36,10.34-.59,17.26-1.21Z" transform="translate(-14 -59.14)"/><path class="cls-2" d="M128.17,452.86c-3.65-86.72,8.06-111.93,8.06-111.93,11.67,23.6,16.49,97.48,17.33,111.93Z" transform="translate(-14 -59.14)"/><path class="cls-4" d="M171.16,302.26s12.46-6.73,14.46-20.94,0-30.17,0-30.17l45.87-3.74s10.22,53.86,14.71,62.33-60.58,108.71-75-7.48Z" transform="translate(-14 -59.14)"/><path class="cls-2" d="M225.2,318.35c-13-.91-18.4-3.34-23.22-16.34-1.06-2.87-1.94-5.57-4.18-7.81-4.14-4.14-9.85-4.38-15.34-3.52a27.06,27.06,0,0,0,3.16-9.36c2-14.21,0-30.17,0-30.17l45.87-3.74s10.22,53.86,14.71,62.33c.81,1.54-.66,6.08-3.7,11.8a83.69,83.69,0,0,0-17.3-3.19Z" transform="translate(-14 -59.14)"/><path class="cls-4" d="M168.66,223.31c.33,1.5-.75,2-1.25,3.24s-2.19,3.77,7.34,6.17l1.52.36s-5.49,1.62-8.86,1.24c-1.43.59-2.22,4.82-.28,6.49a4.9,4.9,0,0,1,1.64.67c2.47.5,4.75.82,4.75.82l-.06,0c-.26.25-1.43,1.3-2.94,2.49a3.77,3.77,0,0,1-.66,1.72c-1.71,2.52-5.23,7.05-2.67,10.16,2.38,2.86,7.05,5,10,7.29,3.29,2.49,7,3.15,10.95,3.74a41.84,41.84,0,0,1,6.39,1.71c.6-.06,1.23-.13,1.92-.22l1.1-.14c1-.14,2.25-.31,3.62-.53,2.11-.35,4.57-.8,7.24-1.42l.11,0c2.42-.55,5-1.22,7.64-2,.54-.16,1.08-.34,1.62-.51l1-.34.61-.21c8.85-3.08,18-7.83,23.77-15.12,11.47-14.46,15.15-62.67,3.21-75.63s-52.33-31.75-66-9.89c0,0-.5,14-3.49,18.2s-4.24,4.49-3.58,7.48,5.16,7.81,4.16,9.64S160.68,214,160.85,216.66,168.33,221.81,168.66,223.31Z" transform="translate(-14 -59.14)"/><path class="cls-2" d="M196.25,212.38c-.71-3.71-6-6.81-9.3-7.14-3.17-.32-6.88-.65-7.52,1.34-.22.69,1.19,2.64,3.83,3,2,.26,2.58-.67,4.43-.18,3.41.9,5.53,2.31,8.56,3Z" transform="translate(-14 -59.14)"/><path class="cls-2" d="M188.44,208.61a6.69,6.69,0,0,1-1.93,3.87c-1.36,1-4.59.86-5.31-.62-.63-1.3-.41-3.57.87-4.3a5.64,5.64,0,0,1,6.37,1.05Z" transform="translate(-14 -59.14)"/><path class="cls-2" d="M201.41,201.2c-2.83-2.22-6.37-6.34-9.8-7.32-2.46-.7-7.33-.43-9.23,1.1-.08,0,0-.13-.18-.09h.12c-2.6,0-5.95-.36-4.39,3.2,1.29,2.93,3.31,3.79,6.36,3.45a22,22,0,0,0,3.64-.84c1.17-.34,2.81-1.3,4-1.33,2.38-.06,5.21,2.69,7.52,3.29,1.31.35,3.88.05,2-1.46Z" transform="translate(-14 -59.14)"/><path class="cls-2" d="M191.65,269.86a18.23,18.23,0,0,1-5.29-1.07c-2.07-.58-5.2-1.47-10.25-2.68-8.46-2-11.06-6.24-11.74-9.43-.91-4.22,1.09-8.34,2.41-9.37,2.66-2.06,5.54-4.25,6.4-4.91a27.3,27.3,0,0,1-5-.91,2.52,2.52,0,0,1-1.12-.59,4.55,4.55,0,0,1-1.12-4.13,3.34,3.34,0,0,1,1.43-2.57,27.49,27.49,0,0,1,6.62-1.53c-4.45-1-6.88-2.2-7.43-3.5A2.29,2.29,0,0,1,167,227a3.62,3.62,0,0,0,.29-.53,6,6,0,0,1,.66-1.12,2.28,2.28,0,0,0,.59-2l0-.24.22.09a10.46,10.46,0,0,0,3.55.74,3.4,3.4,0,0,0,3.21-1.57,3,3,0,0,0,.17-1.87c-.08-.62-.15-1.16.32-1.36a2,2,0,0,1,.85-.2,2.79,2.79,0,0,1,2.11,1.29c.82,1,.79,1.8-.12,2.9s-2.3,1.27-3.68,1.5a7.71,7.71,0,0,0-2.46.65c-1,.52-1.46,1.09-1.47,1.69,0,1.44,2.64,3,4.78,4.19a20.31,20.31,0,0,1,2.4,1.51l.11.09-.1.1a11.73,11.73,0,0,1-3.65,1.73c-2.1.75-4.27,1.53-4.21,2.61.12,2.3,5.19,3.4,7.85,3.67l.27,0-.19.19a28.22,28.22,0,0,1-2.92,2.34c-2,1.44-3.83,2.8-5,5.55-1.87,4.33-1.06,7.52,2.47,9.76a6.15,6.15,0,0,0,3.48.72H177a13.35,13.35,0,0,1,1.63.08l.6,0c1.69,0,5.82-.33,10.19-.67,5.14-.41,11-.87,13.81-.87h.83a2.26,2.26,0,0,1,1.74.68A2.91,2.91,0,0,1,206,261c-.13.66-.25,1.28,0,1.59a.94.94,0,0,0,.76.25,4.63,4.63,0,0,0,.83-.09l.23-.05a19.5,19.5,0,0,1,3.75-.5,9.86,9.86,0,0,1,3.6.72,17.49,17.49,0,0,0,4.32,1l.55.06-1.13.39-1,.34-.54.17-1.08.34c-2.54.78-5.12,1.46-7.65,2l-.14-.1,0,.12c-2.32.53-4.76,1-7.25,1.42-1.37.22-2.58.39-3.62.53l-.31,0-.8.1a40,40,0,0,1-4.84.5Z" transform="translate(-14 -59.14)"/><path class="cls-2" d="M176.81,219.06a2.62,2.62,0,0,1,2,1.24c.82,1,.71,1.74-.12,2.74-1.41,1.69-4.37,1.18-6.1,2.12-4.95,2.68,3.49,5.79,5.69,7.6-1.57,1.55-8,2.45-7.9,4.44.14,2.64,6.24,3.61,8,3.78-3,2.81-6.18,3.82-8,7.93-1.65,3.81-1.49,7.38,2.51,9.92a6.32,6.32,0,0,0,3.56.73H177a14.63,14.63,0,0,1,1.62.07,5.08,5.08,0,0,0,.61,0c3.71,0,18.78-1.54,24-1.54l.82,0c4.2.21-.19,4.85,2.65,4.85a4.2,4.2,0,0,0,.85-.1,20.68,20.68,0,0,1,4-.55,9.67,9.67,0,0,1,3.56.72,17.24,17.24,0,0,0,4.35,1l-.61.21-1,.34c-.54.17-1.08.35-1.62.51-2.65.81-5.23,1.49-7.64,2l-.11,0c-2.67.61-5.13,1.07-7.24,1.42-1.37.22-2.58.39-3.62.53l-1.1.14a41.07,41.07,0,0,1-4.83.49c-2.72,0-4.2-1-15.51-3.74-16.7-4-11.63-16.76-9.28-18.58,2.94-2.28,6.14-4.71,6.6-5.06l.06,0a25.7,25.7,0,0,1-5.32-.93,2.55,2.55,0,0,1-1.07-.56c-1.94-1.67-1.15-5.9.28-6.49a28.39,28.39,0,0,1,7.34-1.6c-11.23-2.5-7.83-4.92-7.34-6.17s1.58-1.74,1.25-3.24a10.75,10.75,0,0,0,3.6.74,3.56,3.56,0,0,0,3.32-1.63c.7-1.23-.35-2.84.43-3.18a1.92,1.92,0,0,1,.8-.18m0-.25h0a2.26,2.26,0,0,0-.9.2c-.56.24-.48.88-.4,1.5a2.76,2.76,0,0,1-.15,1.79,3.26,3.26,0,0,1-3.1,1.5,10.39,10.39,0,0,1-3.5-.72l-.45-.19.11.47a2.19,2.19,0,0,1-.57,1.95,5.2,5.2,0,0,0-.67,1.15,4.52,4.52,0,0,1-.28.5,2.42,2.42,0,0,0-.47,2.26c.55,1.29,2.74,2.39,6.84,3.41a25.64,25.64,0,0,0-6,1.46,3.35,3.35,0,0,0-1.5,2.66A4.7,4.7,0,0,0,167,241a2.73,2.73,0,0,0,1.17.61,28.73,28.73,0,0,0,4.71.89c-2.91,2.21-4.94,3.78-6.14,4.71-1.35,1-3.38,5.23-2.46,9.5.69,3.22,3.31,7.49,11.83,9.52,5,1.21,8.18,2.1,10.25,2.68a18.33,18.33,0,0,0,5.32,1.07,39.55,39.55,0,0,0,4.85-.49l.75-.1.36,0c.93-.13,2.17-.3,3.63-.53,2.49-.42,4.93-.89,7.26-1.43l.13,0c2.51-.57,5.09-1.26,7.63-2l1.09-.34.54-.17.51-.17.51-.17.31-.11.3-.1,1-.36-1.08-.13a17.43,17.43,0,0,1-4.29-1,10,10,0,0,0-3.65-.74,20,20,0,0,0-3.78.51l-.23,0a3.7,3.7,0,0,1-.8.1.83.83,0,0,1-.66-.21c-.22-.26-.1-.89,0-1.49a3,3,0,0,0-.16-2.42,2.36,2.36,0,0,0-1.84-.73l-.83,0c-2.84,0-8.68.46-13.82.87-4.37.35-8.49.67-10.18.67a4.47,4.47,0,0,1-.58,0,16.18,16.18,0,0,0-1.65-.07h-.55a6.12,6.12,0,0,1-3.43-.69c-3.47-2.2-4.26-5.35-2.41-9.61,1.18-2.72,3-4.07,5-5.5a28.37,28.37,0,0,0,2.92-2.35l.4-.38-.55-.05c-2.11-.21-7.62-1.25-7.74-3.54,0-1,2.17-1.79,4.13-2.49a11.82,11.82,0,0,0,3.7-1.76l.19-.2-.21-.17A19.08,19.08,0,0,0,176,231c-2.11-1.21-4.73-2.71-4.71-4.08,0-.55.48-1.08,1.4-1.58a7.65,7.65,0,0,1,2.42-.64c1.4-.23,2.85-.46,3.75-1.54s1-2,.13-3a2.88,2.88,0,0,0-2.21-1.34Z" transform="translate(-14 -59.14)"/><path class="cls-2" d="M202.37,268.44c-.72-.73-1.44-1.49-2.15-2.24-6.09-6.53-7.42-13.12-3.93-19.6a30.08,30.08,0,0,1,3.88-5.22,26.12,26.12,0,0,0,4.28-6c2.24-4.86-.13-7.79-3.22-10.84l-.3-.3c-.94-.91-2.23-2.15-2.24-3.36a1.74,1.74,0,0,1,.54-1.25,3.85,3.85,0,0,1,2.4-.85c1.16-.14,2.36-.29,3-1.62,1.55-3.11-3.64-6.66-6.42-8.56l-1-.67c-7.91-5.67-2.77-13.57,1.78-20.55a45,45,0,0,0,3.85-6.66c1.75-4.25,3.42-8.87,5.11-14.13.51-1.56.9-3.28,1.32-5.09a55.83,55.83,0,0,1,1.92-6.94l0-.1.11,0c14.63,3.26,29,12.07,35.12,18.7,12,13,8.14,61.5-3.2,75.8-9.91,12.49-29.83,17.57-40.83,19.48l-.06,0Z" transform="translate(-14 -59.14)"/><path class="cls-2" d="M211.36,154.61c14.2,3.17,28.69,11.75,35.06,18.67,11.94,13,8.26,61.17-3.21,75.63-9.85,12.41-29.41,17.47-40.75,19.44-.72-.73-1.44-1.48-2.15-2.24-5.32-5.7-7.75-12.31-3.91-19.45,2.15-4,6.24-7,8.16-11.21,2.22-4.82,0-7.76-3.24-11-1.2-1.19-3.53-3.18-2-4.74,1.39-1.39,4.25-.08,5.44-2.49,1.8-3.63-5-7.67-7.43-9.39-10.53-7.55,2.46-19.26,5.68-27.06,1.89-4.61,3.59-9.42,5.11-14.14,1.16-3.61,1.8-8.18,3.24-12m-.16-.29-.07.2a54.94,54.94,0,0,0-1.93,7c-.42,1.81-.82,3.53-1.31,5.08-1.7,5.26-3.37,9.88-5.12,14.13a43.49,43.49,0,0,1-3.84,6.63c-4.57,7-9.75,15-1.74,20.72.27.2.6.42,1,.67,2.75,1.88,7.88,5.39,6.38,8.41-.63,1.27-1.75,1.4-2.93,1.55a3.89,3.89,0,0,0-2.46.88,1.81,1.81,0,0,0-.58,1.34c0,1.26,1.31,2.53,2.27,3.45l.3.3c3.05,3,5.4,5.91,3.19,10.7a26.26,26.26,0,0,1-4.25,6,30.34,30.34,0,0,0-3.9,5.24c-3.52,6.53-2.19,13.17,3.95,19.74.73.78,1.46,1.54,2.16,2.25l.09.09.13,0c11-1.92,31-7,40.89-19.54,5.42-6.83,9.52-21.95,10.44-38.51,1-17.47-1.73-31.46-7.24-37.44-6.11-6.65-20.52-15.47-35.19-18.74l-.21-.05Z" transform="translate(-14 -59.14)"/><path class="cls-2" d="M268.39,165.63c-3.32-3.45-7.34-6.47-10.59-10-2.82-3-5.13-6.89-8.22-9.62-6.06-5.34-15.07-5.08-22.55-4.34-9.64,1-14.25-2.76-22.94-5-7-1.84-16.33-1.17-21.59,4.38-3,3.16-2.55,6.76-4.47,10.1-2.13,3.67-3,24,4.59,23.94,4,0,8.5.55,12.5,0,3.52-.46,8.2-3.81,11.07-.54s-.49,6.63,3.36,9.49c3.21,2.39,8.15,2,12,2,4.86,0,10.28-1.37,14.93-.14,8.9,2.37,13.44,9.84,23.34,11.12,9.73,1.26,22,0,22.56-12.37.39-9.1-7.93-12.78-14-19.06Z" transform="translate(-14 -59.14)"/><path class="cls-2" d="M142.55,452.86c-2.72-35.58-11.23-91.28-8.79-97.74,2.49-6.61,3.4-34,9.18-43.88s42.11-26.76,42.11-26.76l-7.52,21.44,7.52,42.69,23.74-38,30.37-26.09L279,306.58,247,452.86Z" transform="translate(-14 -59.14)"/><path class="cls-4" d="M250.44,258.05s-2.69,29-14,44.64-41.23,49.1,5,56.75,63.49-42.88,66.15-53.19c0,0-15.7-29.85-8-80.75l-49.16,32.55Z" transform="translate(-14 -59.14)"/><path class="cls-2" d="M289.73,340.93a25.35,25.35,0,0,1-4.82-6.11c-5.06-8.74-8.36-18.36-13.74-26.92-7.32-11.66-14.1-21.36-25.94-24.17a145.29,145.29,0,0,0,5.21-25.68L299.6,225.5c-7.68,50.9,8,80.75,8,80.75-1.38,5.34-6.69,21.44-17.89,34.68Z" transform="translate(-14 -59.14)"/><path class="cls-4" d="M289.08,185.08s-30.91-19-40.63-12.46S235,185.08,235,191.4s-5.08,9.16-5.53,11.39-.16,6.78-.83,8.16c-1.37,2.85-11,8.62-11.85,11.28s3.09,5.4,3.58,5.9,3.54,2.49,3.18,3-1.26,3.33-2.51,3.27-4.36,3.3.12,5.91c0,0-4.61-.12-4.36,3s3.66,3.57,3.66,4.07a16.29,16.29,0,0,1-1.75,8.48c-2.16,4.15-3.15,15,14.63,11.63s20.36-3.15,27.59-4.9,9.23-5,14.71-8.23,47.46-36.66,13.46-69.31Z" transform="translate(-14 -59.14)"/><path class="cls-2" d="M237.91,203.66a14.6,14.6,0,0,1,5.57,1.32c.87.75,2.44,1.53,3.14,2a37.84,37.84,0,0,1,3.49,2.83c3.32,3.12-1.62,1.23-3.49.33a18.72,18.72,0,0,0-6.49-1.83c-2.3-.14-4.39.55-6.64.67-1.91.09-3.51-1-3.28-3.31.07-3.05,5.06-2.23,7.7-2.05Z" transform="translate(-14 -59.14)"/><path class="cls-2" d="M250.27,216.16c-2.56-3.79-9.55-6.25-13.79-5.81-1.24.12-2.66.84-2.5,2.32.18,1.65,1.94,1.6,3.33,1.66,2.92.15,5.16,0,7.68,1.46.79.46,7,2.92,5.28.37Z" transform="translate(-14 -59.14)"/><path class="cls-2" d="M238.31,212.34c1.75.39,3.58,2.54,2.28,4.29-1,1.28-3.64,1.6-4.94,1a3,3,0,0,1-1.71-4,3.62,3.62,0,0,1,1.87-1.79c1.59-.58,1.08.15,2.5.47Z" transform="translate(-14 -59.14)"/><path class="cls-2" d="M227.33,268.27c-3.41,0-6-.77-7.68-2.28l-.07-.06,0-.07a6.27,6.27,0,0,1,.55-1.3c1.71-3,4.87-3.49,7.92-4a20.75,20.75,0,0,0,4.86-1.23c3.43-1.53,9.28-5.11,9.9-11.93a25.86,25.86,0,0,0,0-2.92,16,16,0,0,1,.23-4.27c.6-2.58,2-3.64,3.79-5,.38-.28.77-.58,1.18-.91a15.37,15.37,0,0,0,5.76-13.83c-.28-2.88-1.91-5.76-3.49-8.54-2.79-4.91-5.42-9.55-1-14.05A49.62,49.62,0,0,0,259,184.47a24.08,24.08,0,0,0,1.73-8.8c0-.56,0-1.86-.08-3.38v-.16l.17,0C273.24,175.3,289,184.88,289.15,185c9.92,9.52,14.29,20,13,31.09-2.34,20.21-22.57,36.13-26.46,38.43a49.07,49.07,0,0,0-4.53,3.11,24.85,24.85,0,0,1-10.21,5.13c-3.74.91-6.19,1.29-10.25,1.93-3.7.58-8.77,1.37-17.35,3A33.5,33.5,0,0,1,227.33,268.27Z" transform="translate(-14 -59.14)"/><path class="cls-2" d="M260.78,172.29c12.55,3.16,28.3,12.79,28.3,12.79,34,32.65-8,66.07-13.46,69.31s-7.48,6.49-14.71,8.23-9.81,1.58-27.59,4.9a32.89,32.89,0,0,1-6,.62c-3.71,0-6.1-.9-7.6-2.25a6.44,6.44,0,0,1,.54-1.27c2.59-4.49,8.43-3.27,12.72-5.18,5.09-2.26,9.45-6.23,10-12,.21-2.39-.29-4.86.25-7.17.72-3.1,2.66-4,4.93-5.84a15.47,15.47,0,0,0,5.8-13.93c-.76-7.87-11.4-15.47-4.56-22.49a50.68,50.68,0,0,0,9.74-13.45,24.51,24.51,0,0,0,1.74-8.85c0-.62,0-2-.08-3.39m-.27-.33,0,.34c.08,1.51.11,2.8.08,3.36a24.2,24.2,0,0,1-1.72,8.76,49.38,49.38,0,0,1-9.69,13.38c-4.45,4.57-1.67,9.47,1,14.2,1.57,2.78,3.2,5.64,3.47,8.49A15.23,15.23,0,0,1,248,234.21c-.4.33-.8.63-1.18.91-1.73,1.31-3.22,2.43-3.83,5.06a16.32,16.32,0,0,0-.24,4.3,23.55,23.55,0,0,1,0,2.91c-.61,6.76-6.42,10.31-9.82,11.82a19.9,19.9,0,0,1-4.83,1.22c-3.08.52-6.27,1.05-8,4.07a7.29,7.29,0,0,0-.56,1.32l-.05.15.12.11c1.71,1.54,4.32,2.31,7.77,2.31a33.9,33.9,0,0,0,6-.62c8.58-1.61,13.64-2.4,17.35-3,4.05-.64,6.5-1,10.25-1.93a24.85,24.85,0,0,0,10.25-5.15,49.1,49.1,0,0,1,4.53-3.1c3.89-2.3,24.16-18.26,26.52-38.52,1.29-11.16-3.08-21.65-13-31.19l0,0h0c-.15-.1-15.92-9.69-28.37-12.82l-.33-.09Z" transform="translate(-14 -59.14)"/><rect class="cls-5" x="215.48" y="150.5"/><path class="cls-2" d="M225.47,232a9.58,9.58,0,0,1-2.23-.28l-.15,0,.07-.14a4.91,4.91,0,0,1,.27-.53c.19-.26-1.58-1.6-2.25-2.1-.43-.33-.77-.59-.91-.73a6.75,6.75,0,0,0-.68-.48,16.51,16.51,0,0,1-3.17-2.54l-.82-.91,1,.73c3.24,2.39,6.33,3.71,8.7,3.71h0a3.72,3.72,0,0,0,2.71-.93,2,2,0,0,0,.57-1.47v-.14h.14c1.21.08,1.55.71,1.62,1.22.19,1.47-1.61,3.87-2.94,4.33A5.76,5.76,0,0,1,225.47,232Z" transform="translate(-14 -59.14)"/><path class="cls-2" d="M216.51,225.12c3.7,2.74,6.68,3.73,8.77,3.73,2.24,0,3.45-1.14,3.41-2.52,3.32.22.42,4.7-1.35,5.3a5.72,5.72,0,0,1-1.87.29,9.34,9.34,0,0,1-2.2-.28,4.89,4.89,0,0,1,.26-.52c.36-.5-2.68-2.49-3.18-3a25.43,25.43,0,0,1-3.84-3m-1.82-1.66,1.63,1.83a17.86,17.86,0,0,0,3.2,2.56,6.16,6.16,0,0,1,.66.46,11.32,11.32,0,0,0,.93.74,10.62,10.62,0,0,1,2.2,2,5.64,5.64,0,0,0-.27.52l-.12.28.29.07a9.86,9.86,0,0,0,2.26.29,6,6,0,0,0,1.95-.3c1.37-.47,3.22-3,3-4.47-.06-.45-.37-1.23-1.74-1.32l-.27,0v.27a1.85,1.85,0,0,1-.54,1.39,3.6,3.6,0,0,1-2.62.88c-2.35,0-5.41-1.31-8.62-3.68l-2-1.46Z" transform="translate(-14 -59.14)"/><path class="cls-2" d="M227.34,268.24c-4.42,0-7.41-1.25-8.91-3.71-1.62-2.67-1.06-6.38.15-8.7a15.93,15.93,0,0,0,1.74-8.2c0-.1,0-.17,0-.22a2.19,2.19,0,0,0-.62-.36,4.51,4.51,0,0,1-3-3.7,2.41,2.41,0,0,1,.61-1.91,5.35,5.35,0,0,1,3.45-1.25c-2.18-1.42-2.16-2.95-1.95-3.75a2.92,2.92,0,0,1,2.21-2.18h0a1.37,1.37,0,0,0,1-.66l.51-.66-.45,1.16c-.4,1-.81,2.05-.19,3,.79,1.18,5,2.09,6.53,2.09h.23l-.08.19c-.75,1.17-2.76,3-4.23,3.19l-.21,0a5.23,5.23,0,0,1-1.61-.39,5.48,5.48,0,0,0-1.69-.41,1.44,1.44,0,0,0-1.35.87,1.25,1.25,0,0,0-.14,1.2c.47.92,2.56,1.19,4.58,1.46s4.11.54,4.49,1.54l.07.17h-.43a8.37,8.37,0,0,0-6.09,2.7c-.14.15-.3.3-.46.45-.63.59-1.23,1.15-1.05,2.06a2.37,2.37,0,0,0,.78,1.15,2.24,2.24,0,0,1,.89,2c-.18,1.1-.92,1.43-1.63,1.74a3.08,3.08,0,0,0-1.23.81,2,2,0,0,0-.44,1.53,2.44,2.44,0,0,0,1.09,1.61,15.12,15.12,0,0,0,3,1.53,9.93,9.93,0,0,1,4.82,3.32,5.46,5.46,0,0,1,1,2.11l0,.14h-.14Z" transform="translate(-14 -59.14)"/><path class="cls-2" d="M222.14,233.67c-.45,1.16-1.08,2.37-.33,3.48s5.15,2.14,6.63,2.14h0c-.74,1.17-2.71,3-4.13,3.14h-.2c-1,0-2.23-.79-3.3-.79a1.56,1.56,0,0,0-1.46.93c-2,3.63,8.08,2.11,8.92,4.3h-.24a8.52,8.52,0,0,0-6.18,2.73c-.74.78-1.78,1.41-1.54,2.63s1.92,1.56,1.66,3.15-2,1.42-2.82,2.49a2.22,2.22,0,0,0,.67,3.33c2.56,1.79,5.81,1.93,7.81,4.81a5.18,5.18,0,0,1,1,2.06l-1.28,0c-11.48,0-10.53-8.61-8.65-12.22a16.29,16.29,0,0,0,1.75-8.48c0-.5-3.41-.91-3.66-4.07-.23-2.93,3.72-3,4.3-3h.06c-4.44-2.59-1.43-5.91-.16-5.91h.08a1.54,1.54,0,0,0,1.08-.72m.83-1.46-1,1.31c-.32.41-.62.62-.88.62H221a3.07,3.07,0,0,0-2.33,2.26c-.21.8-.24,2.28,1.7,3.69a5.15,5.15,0,0,0-3.17,1.27,2.54,2.54,0,0,0-.65,2,4.62,4.62,0,0,0,3.11,3.8,3.56,3.56,0,0,1,.55.3,1.28,1.28,0,0,0,0,.18,15.87,15.87,0,0,1-1.73,8.13c-1.22,2.35-1.79,6.12-.15,8.82,1.52,2.51,4.56,3.77,9,3.77l1.3,0h.28l0-.28a5.56,5.56,0,0,0-1-2.16,10,10,0,0,0-4.88-3.36,16.27,16.27,0,0,1-3-1.52,2.33,2.33,0,0,1-1-1.53,1.88,1.88,0,0,1,.42-1.44,3,3,0,0,1,1.18-.76,2.23,2.23,0,0,0,.78-4,2.32,2.32,0,0,1-.74-1.09c-.17-.84.38-1.36,1-1.95l.46-.45a8.23,8.23,0,0,1,6-2.66h.61l-.13-.35c-.41-1.06-2.45-1.33-4.6-1.61-1.89-.25-4-.54-4.48-1.4a1.13,1.13,0,0,1,.14-1.08,1.31,1.31,0,0,1,1.24-.8,5.69,5.69,0,0,1,1.65.39,5.08,5.08,0,0,0,1.65.4h.23c1.52-.2,3.54-2,4.32-3.26l.24-.39h-.46c-1.47,0-5.71-.9-6.47-2-.58-.88-.2-1.84.21-2.87l.15-.38.6-1.55Z" transform="translate(-14 -59.14)"/><path class="cls-1" d="M319.43,452.86H196a217.78,217.78,0,0,0-4.74-27.93C187.61,410.3,178,402,179.09,393.68s5.19-15.62,15.83-28.59,27.78-45.71,27.78-45.71l-7.26-4.49c3.24-4.32,29.56-30.41,29.56-30.41l-7.65,27.76L234,353.13l27-34.91,40.58-29.65s25,15,33.65,21.34,1.5,48.2,0,75.13c-1.28,23.09-12.58,58.26-15.78,67.82Z" transform="translate(-14 -59.14)"/><path class="cls-2" d="M295.42,344.15c-7.94-2.25-19.09-3.69-25.71.06-10.79,6.13-19.46,21-31.9,23.55-5.93,1.21-11.65,2.69-17.35,4.1,13.88-14.61,28.27-28.74,44.36-41.46,4.88,2.21,9.82,4.24,14.81,6.29a3.91,3.91,0,0,0,4.5-1.83c7.08-14.68,17.49-27.3,25.77-41.22l1.52.93c-7.65,15.35-10.69,33.24-16,49.58Z" transform="translate(-14 -59.14)"/><path class="cls-2" d="M319.43,452.86H278.89c8.78-16,16.53-32.37,19.61-50.81,3.25-19.42-1.8-39.66,9.07-57.53,7.66-12.6,18.64-20.61,31-27.37,2.72,14.64-2.17,46.14-3.38,67.89-1.28,23.09-12.58,58.26-15.78,67.82Z" transform="translate(-14 -59.14)"/><path class="cls-1" d="M363.14,400.5c.25,10.13-6.5,43-8.45,52.36h-59c2.86-5.39,9.5-18.59,11.95-29.42,3.16-14,2.75-82.37,9.24-101.9,3.25-9.76,7.05-15.48,13.76-14.81s19.43,5.81,27.53,21.58c10.8,21.07,4.49,52.71,5,72.19Z" transform="translate(-14 -59.14)"/><path class="cls-4" d="M235.48,190.9a46.18,46.18,0,0,1-9.32-9.21,14.36,14.36,0,0,1-2.63-11.32c.55-2.55,2-6.21,6.68-7.36-.06.12,7.14-7.18,16.28-7.31,5.38-2.87,16.45-3.35,24.23-2.7,11.2.94,21.1,9.1,32.58,8.64,12.22-.48,23.52-4.38,35.9.48,12.21,4.81,26.4,13.49,33.91,24.12,8.18,11.59,14.67,23.48,25.08,33.42,10.19,9.71,28.49,15.57,42,17.88-.24,6.51-11.44,10-16.51,12.33-1.39.63-8,2.74-8.65,3.51-3.13,3.49-.47,2.57,1.83,6.13,4.67,7.22,6.82,8.14,14.1,12,6,3.16,10.42,9.67,17.76,9.29-10.7,8-26.09.2-37.61.66,4.86,5.56,8.28,13.72,14.53,17.84,1.94,1.28,4.53,1.74,6.68,3.31,1.92,1.4,3.33,4,5.45,5.15,4.43,2.32,9.88,1.24,14.22,4.15-12,7.84-25.44,5.59-37.52,1.43,2.84,5.93,5.83,8.93,11.3,11.21-18.38,10.52-46.73-3.4-63.22-12-11.55-6-14.76-16.32-23.79-24.08-4.41-3.78-10.29-4.49-14.67-8.66-4.11-3.91-7.43-9.71-10.6-14.48a240.59,240.59,0,0,1-16.16-27.24c-4.12-8.46-11.16-14.06-16.1-21.92-6.42-10.19-7.28-18.49-21.11-18.65-6.15-.07-7.29-.14-12.8-3.83-4-2.67-6.82-4.57-11.8-2.82Z" transform="translate(-14 -59.14)"/><path class="cls-2" d="M394.62,332.15c-11.25,0-22.5-2.49-30.88-6.84-6.94-3.6-10.15-7.81-13.55-12.28a55.78,55.78,0,0,0-8.25-9.18c-2.11-1.81-8.19-2-14.06-2.21-6.32-.21-12.85-.43-15.12-2.59-1.71-1.63-5.43-3.82-9.36-6.14-5.42-3.2-11.57-6.82-13.42-9.62-3.16-4.76-3.84-12.12-4.49-19.25-.55-6-1.13-12.24-3.24-16.57a15.55,15.55,0,0,0-6.55-7.28,18.45,18.45,0,0,1-6.54-6.45c-2.58-4.11-2.73-9.55-2.85-14.35-.19-7.35-.36-13.7-8.53-13.8-3.52,0-4.68-2.56-6-5.48-1-2.19-2.15-4.68-4.55-6.28-2.89-2-5.18-3.48-8.12-3.48a10.71,10.71,0,0,0-3.57.67l-.06,0-.05,0a45.7,45.7,0,0,1-9-8.77l-.07-.08.08-.08c3.19-3.17,6.72-4.85,10.22-4.85a11.61,11.61,0,0,1,4.83,1.08,21.67,21.67,0,0,1,5.85,4.43,22.25,22.25,0,0,0,6.13,4.58,72.06,72.06,0,0,0,9.53,3.22c1.89.54,3.83,1.1,5.75,1.74,1.63.55,3.35,1.08,5.12,1.64,8.46,2.63,18.05,5.61,23.69,12s7.72,14.71,9.62,22.61c.49,2,1,4.15,1.56,6.19,3.8,13.74,10.33,21.53,20.54,24.53a52.16,52.16,0,0,0,9,1.52c7.71.83,15,1.61,18.74,10.52,1.76,4.18,2.19,8.28,2.61,12.25.65,6.27,1.27,12.19,7,17.63,3.08,2.92,20.64,15.1,27.74,15.1a3.27,3.27,0,0,0,1.92-.5l0,0,.12,0a34.49,34.49,0,0,1-2.14-3.26c-.67-1.09-1.3-2.13-2-3.08l-.16-.2h.26a22.14,22.14,0,0,1,4.12.56,20.39,20.39,0,0,0,4.26.56h.62a26.8,26.8,0,0,0-2.26-5.6c-1.23-2.48-2.49-5.05-2.66-8.09l0-.41.25.33c5.43,7.26,10.44,9.83,19.15,9.83.86,0,1.78,0,2.76-.08L416.83,304c-6.42-8-13.69-17.1-13.83-27.93V276h.14c2.27.2,4.95.23,7.78.26,5.32.06,11.3.13,15.66,1.42-15.08-10.28-25.05-20.2-28.25-37.29l0-.25.69.36c5,2.54,10.61,5.42,16,5.42a13.35,13.35,0,0,0,7.53-2.23c-12.74-1.1-28.53-15.41-38.25-27.43a97.7,97.7,0,0,1-6.87-10.05c-4.32-6.9-8.4-13.42-15.67-17.68-5.8-3.4-12.37-5.43-18.71-7.39a126.34,126.34,0,0,1-13.87-4.88c-10.81-4.78-19.35-8.55-31.17-9.15-10-.51-16.39-2.77-24.51-5.64-1.52-.54-3.12-1.1-4.82-1.68s-3.35-1-5.23-1.58a63,63,0,0,1-11.7-4.17l-.3-.16.34-.08a62.27,62.27,0,0,1,12.6-1.16c2.15,0,4.35.09,6.34.26,5.12.43,10,2.39,14.81,4.29,5.39,2.14,11,4.36,16.84,4.36h.91c3.47-.14,6.9-.56,10.23-1a100.9,100.9,0,0,1,12.08-1A36.13,36.13,0,0,1,339.25,162c11.31,4.45,26.18,13.13,34,24.16,2.17,3.07,4.25,6.21,6.25,9.24,5.75,8.67,11.17,16.86,18.82,24.15,10.05,9.59,28.23,15.51,41.9,17.85l.1,0v.11c-.21,5.59-8.43,9-13.88,11.28-1,.42-1.93.81-2.71,1.16-.48.22-1.54.61-2.78,1.05-2.27.82-5.39,1.95-5.82,2.43-1,1.14-1.43,1.81-1.4,2.29s.41.75,1,1.23a10.54,10.54,0,0,1,2.26,2.46c4.44,6.89,6.63,8,13.14,11.47l.9.47a39,39,0,0,1,5.65,3.91c3.55,2.77,6.9,5.39,11.44,5.39l.62,0,.41,0-.33.25c-3.29,2.44-7.34,3.63-12.38,3.63A74.32,74.32,0,0,1,423.65,283a67.13,67.13,0,0,0-11.54-1.43h-.77a69.87,69.87,0,0,1,4.79,6.61c2.75,4.13,5.59,8.4,9.54,11a16.35,16.35,0,0,0,2.94,1.42,16.48,16.48,0,0,1,3.74,1.9,14.9,14.9,0,0,1,2.36,2.34,11.6,11.6,0,0,0,3.08,2.8,20.53,20.53,0,0,0,6.53,1.75c2.62.41,5.34.82,7.7,2.41l.16.1L452,312a32.14,32.14,0,0,1-18.15,5.24c-5.7,0-11.81-1.18-19.2-3.7,2.82,5.78,5.76,8.65,11.1,10.87l.24.1-.22.13C417.34,329.49,406.27,332.15,394.62,332.15Z" transform="translate(-14 -59.14)"/><path class="cls-2" d="M264.39,152.74c2.22,0,4.38.1,6.33.26,10.89.92,20.57,8.66,31.66,8.66l.92,0c7.63-.3,14.9-1.93,22.3-1.93a36.46,36.46,0,0,1,13.6,2.41c12.21,4.81,26.4,13.49,33.91,24.12,8.17,11.59,14.67,23.48,25.08,33.41,10.18,9.72,28.49,15.58,42,17.89-.24,6.51-11.44,10-16.51,12.33-1.39.63-8,2.74-8.65,3.51-3.13,3.49-.47,2.57,1.83,6.13,4.67,7.22,6.81,8.14,14.1,12,5.82,3.07,10.16,9.3,17.14,9.3h.62c-3.66,2.72-7.88,3.61-12.3,3.61-8.11,0-16.9-3-24.27-3l-1,0c4.86,5.56,8.28,13.72,14.53,17.84,1.94,1.28,4.53,1.74,6.68,3.31,1.92,1.4,3.33,4,5.45,5.15,4.43,2.32,9.88,1.24,14.22,4.15a32.19,32.19,0,0,1-18.08,5.22c-6.59,0-13.2-1.64-19.44-3.79,2.84,5.93,5.83,8.93,11.3,11.21-9,5.17-20.17,7.49-31.11,7.49-11.32,0-22.44-2.48-30.82-6.83-11.54-6-12.74-13.68-21.78-21.44-4.4-3.79-24.8-.64-29.18-4.8-4.11-3.92-19.59-11-22.76-15.74-5.84-8.8-3.13-26.4-7.71-35.81-4.13-8.46-8.16-5.88-13.1-13.74-6.42-10.19,2.34-28-11.48-28.2-6.16-.08-5-8.06-10.51-11.75-2.91-1.95-5.21-3.5-8.19-3.5a10.85,10.85,0,0,0-3.61.68,45.85,45.85,0,0,1-8.95-8.74c2.87-2.85,6.36-4.82,10.14-4.82a11.48,11.48,0,0,1,4.78,1.08c4.63,2.1,7.13,6.85,12,9s10.09,3.21,15.29,5c9.33,3.15,22,5.89,28.76,13.62,7.22,8.21,8.42,18.87,11.15,28.75,3.07,11.12,8.68,21.11,20.63,24.62,10.23,3,22.5-.41,27.71,12,4.52,10.74.22,21,9.64,29.92,3,2.89,20.71,15.13,27.82,15.13a3.42,3.42,0,0,0,2-.51l.46.15c-1.69-2.08-2.86-4.63-4.42-6.66,3,0,5.36,1.12,8.38,1.12l.77,0c-1.07-4.78-4.65-8.53-4.95-13.81,5.46,7.3,10.6,9.88,19.25,9.88q1.43,0,3-.09C412,297.74,403.28,288,403.13,276.1c6.92.61,17.71-.34,24.24,1.94-14.82-10-25.57-19.8-28.91-37.69C403.64,243,409.39,246,415,246a13.55,13.55,0,0,0,7.9-2.45c-13.79-.92-30.41-17.37-38.53-27.41-7.71-9.54-11.61-21.34-22.57-27.76-10-5.86-21.83-7.52-32.59-12.28S309.84,167.56,298,167s-18.41-3.59-29.29-7.31c-4.88-1.67-11.81-3.05-16.91-5.74a61.59,61.59,0,0,1,12.58-1.17m0-.25a62.68,62.68,0,0,0-12.63,1.17l-.67.15.61.32a62.94,62.94,0,0,0,11.72,4.18c1.88.53,3.65,1,5.22,1.58s3.3,1.14,4.82,1.68c8.13,2.87,14.54,5.14,24.54,5.64,11.8.6,20.33,4.37,31.13,9.14A124.51,124.51,0,0,0,343,181.24c6.34,2,12.89,4,18.69,7.38,7.24,4.24,11.31,10.75,15.62,17.64a100.69,100.69,0,0,0,6.88,10.06c9.64,11.92,25.26,26.1,38,27.44a13.28,13.28,0,0,1-7.16,2c-5.4,0-11-2.87-16-5.4l-.47-.24-.45-.24.09.5c3.16,16.9,12.93,26.81,27.69,36.95-4.3-1.1-9.94-1.16-15-1.22-2.83,0-5.5-.07-7.77-.27l-.28,0v.28c.14,10.87,7.42,20,13.85,28l1.69,2.12c-.88,0-1.73.06-2.51.06-8.66,0-13.65-2.55-19.05-9.78l-.5-.66.05.83c.17,3.07,1.45,5.64,2.68,8.14a27.28,27.28,0,0,1,2.21,5.42h-.46a21.07,21.07,0,0,1-4.24-.56,21.33,21.33,0,0,0-4.14-.56h-.52l.32.41a32.57,32.57,0,0,1,2,3.07c.63,1,1.27,2.1,2,3.08h0a3.18,3.18,0,0,1-1.85.47c-7.07,0-24.58-12.15-27.65-15.06-5.7-5.41-6.32-11.3-7-17.55-.42-4-.85-8.09-2.61-12.29-3.78-9-11.1-9.76-18.85-10.6a51.65,51.65,0,0,1-9-1.51c-10.18-3-16.68-10.75-20.46-24.44-.56-2-1.07-4.15-1.56-6.18-1.9-7.92-3.87-16.11-9.64-22.68s-15.27-9.42-23.75-12.05c-1.8-.56-3.5-1.09-5.12-1.64-1.92-.64-3.87-1.2-5.75-1.74a73.38,73.38,0,0,1-9.52-3.21,22,22,0,0,1-6.09-4.57,22.16,22.16,0,0,0-5.89-4.44,11.7,11.7,0,0,0-4.88-1.1c-3.53,0-7.09,1.69-10.31,4.89l-.16.16.14.17a46.21,46.21,0,0,0,9,8.79l.1.08.12-.05a10.71,10.71,0,0,1,3.53-.66c2.9,0,5.18,1.53,8,3.46,2.37,1.59,3.46,3.95,4.51,6.24,1.3,2.83,2.53,5.5,6.13,5.55,8.05.09,8.22,6.38,8.4,13.67.13,4.82.27,10.28,2.87,14.42a18.6,18.6,0,0,0,6.59,6.49,15.35,15.35,0,0,1,6.5,7.22c2.1,4.31,2.65,10.25,3.22,16.54.66,7.13,1.34,14.51,4.51,19.3,1.88,2.82,7.77,6.29,13.47,9.66,3.92,2.31,7.63,4.5,9.33,6.12,2.31,2.2,8.87,2.42,15.2,2.63,5.86.19,11.91.39,14,2.18a54.73,54.73,0,0,1,8.23,9.16c3.41,4.47,6.63,8.7,13.59,12.31,8.4,4.36,19.67,6.86,30.94,6.86,11.84,0,22.64-2.6,31.23-7.52l.44-.26-.47-.19c-5.23-2.18-8.14-5-10.9-10.55,7.27,2.46,13.31,3.61,18.95,3.61a32.25,32.25,0,0,0,18.22-5.26l.32-.21-.32-.21c-2.39-1.59-5.12-2-7.76-2.42a20.61,20.61,0,0,1-6.49-1.74,11.79,11.79,0,0,1-3-2.77,15.54,15.54,0,0,0-2.37-2.36,16.37,16.37,0,0,0-3.77-1.92,15.8,15.8,0,0,1-2.92-1.4c-3.93-2.59-6.76-6.85-9.51-11a69.59,69.59,0,0,0-4.63-6.42h.51a67,67,0,0,1,11.52,1.43,74.57,74.57,0,0,0,12.75,1.54c5.07,0,9.14-1.2,12.45-3.66l.67-.5-.83.05h-.61c-4.5,0-7.83-2.6-11.36-5.36a40,40,0,0,0-5.67-3.92l-.9-.47c-6.49-3.42-8.67-4.57-13.1-11.43a10.3,10.3,0,0,0-2.28-2.48c-.54-.46-.91-.77-.93-1.14s.37-1.11,1.36-2.21c.41-.46,3.64-1.62,5.78-2.39,1.23-.45,2.3-.83,2.78-1.05.78-.36,1.72-.75,2.71-1.16,5.47-2.28,13.74-5.72,13.95-11.4v-.21l-.21,0c-13.65-2.34-31.81-8.25-41.84-17.82-7.63-7.28-13.05-15.46-18.79-24.13-2-3-4.09-6.17-6.26-9.24-7.8-11-22.69-19.75-34-24.21a36.3,36.3,0,0,0-13.69-2.43,101.23,101.23,0,0,0-12.1,1c-3.32.41-6.75.83-10.21,1l-.91,0c-5.85,0-11.41-2.22-16.79-4.36-4.78-1.9-9.71-3.87-14.85-4.3-2-.17-4.19-.26-6.35-.26Z" transform="translate(-14 -59.14)"/><path class="cls-6" d="M255.93,173.11c12.46-3,17.19-1.28,27.43,3s15.84,15.43,26.58,19c11.84,3.89,23.3,2.81,34.54,10,11.81,7.51,12.85,20,19.15,31.89a59,59,0,0,0,15.43,18.61c5.05,4,13.07,5,17.25,9-11.54.71-24.93-4.35-33.69-12-10.21-8.91-8.37-24.12-19.43-31.26-10.14-6.54-19.68-5.28-29.08-14-7.88-7.26-15.43-14.91-23.43-21.94-9.26-8.14-22.29-15.29-34.75-12.3Z" transform="translate(-14 -59.14)"/><path class="cls-6" d="M262.06,182.92c20.66-2.92,38.46,17.87,51.73,35.94,7.94,10.82,18.41,10.15,27.94,18.08,7.54,6.28,9.94,17.45,17.6,24.3s16.18,11.11,23.08,18.6c6.58,7.13,8.83,17.05,11.87,26-3.57-3.12-6.4-7.1-10.39-10.07-4.38-3.25-8.68-5.4-12.11-9.81C363.72,275.61,358,265.5,348,257.24a70.31,70.31,0,0,1-11.6-12.49c-3.91-5.06-7.8-5.24-13.15-8.46-9.12-5.49-11.6-18.5-18.45-26.26-9.21-10.43-26.42-25.61-42.73-27.11Z" transform="translate(-14 -59.14)"/><path class="cls-6" d="M251.23,167.29c11.43,0,20-5.4,33.45,1.5,10,5.12,18.79,10.36,29.92,11.47,21.94,2.19,46.66,7.24,55.85,30.73,4.11,10.51,11.29,17.35,21,23.12-26.1,9.32-30.36-30.85-47.64-38.74-10.1-4.62-21.09-4.36-31.27-9-8.41-3.81-16.51-9-24.72-13.28-4-2.08-7.75-3.95-11.68-5.65-6.26-2.7-18.95,2.78-25-.19Z" transform="translate(-14 -59.14)"/></svg>