<svg id="Layer_1" data-name="Layer 1" xmlns="http://www.w3.org/2000/svg" viewBox="0 0 107.12 221.64"><defs><style>.cls-1{fill:#021f4d;}.cls-2{fill:#fff;}</style></defs><title>three-finger-salute</title><polygon class="cls-1" points="56.58 96.52 46.93 102.78 32.9 101.43 28 112.03 41.56 114.75 53.2 124.84 64.16 152.81 70.01 132.01 79.93 136.91 103.85 114.48 103.85 130.31 86.27 165.19 86.27 221.64 20.77 220.31 30.62 158.53 0 110.7 17.67 75.46 58.84 89.62 56.58 96.52"/><polygon class="cls-1" points="92.46 96.07 71.35 115.78 68.56 122.24 70.61 126.96 78.85 131.83 105.55 110.7 107.12 103.92 99.61 95.02 92.46 96.07"/><polygon class="cls-1" points="25.84 74.72 25.84 21.63 28.88 11.08 38.53 9.83 43 16.27 43 80.61 25.84 74.72"/><polygon class="cls-1" points="59.26 99.74 51.04 104.21 58.73 108.32 61.94 114.75 66.95 104.74 66.95 9.83 62.66 1.07 51.04 0 46.21 10.5 46.21 81.69 62.94 87.97 59.26 99.74"/><polygon class="cls-1" points="69.6 110.7 69.6 17.84 73.89 9.83 82.47 8.79 87.84 19.71 87.84 96.97 69.6 110.7"/><polygon class="cls-2" points="52.58 169.5 61.49 171.98 67.81 171.98 77.21 170.74 66.44 179.16 61.37 205.77 59.88 177.55 52.58 169.5"/></svg>